<?xml version="1.0" encoding="utf-8"?>
<!-- Generator: Adobe Illustrator 18.0.0, SVG Export Plug-In . SVG Version: 6.00 Build 0)  -->
<!DOCTYPE svg PUBLIC "-//W3C//DTD SVG 1.1//EN" "http://www.w3.org/Graphics/SVG/1.1/DTD/svg11.dtd">
<svg version="1.1" xmlns="http://www.w3.org/2000/svg" xmlns:xlink="http://www.w3.org/1999/xlink" x="0px" y="0px"
	 viewBox="0 0 700 480" enable-background="new 0 0 700 480" xml:space="preserve">
<g id="Layer_2" display="none">
	<rect display="inline" fill="#F7F7F7" width="700" height="480"/>
</g>
<g id="Layer_1">
	<g>
		<g opacity="0.5">
			<path fill="#E1EAEF" d="M406.031,127.636v301.037H232.607V157.085c0-0.9,0.376-1.718,0.966-2.307l0.229-0.213l29.008-29.007
				c0.065-0.082,0.13-0.147,0.213-0.229c0.589-0.605,1.407-0.965,2.306-0.965h137.43
				C404.575,124.364,406.031,125.836,406.031,127.636z"/>
		</g>
		<path fill="#7C8B96" d="M262.059,415.584V127.636c0-1.807,1.465-3.272,3.272-3.272h137.43c1.807,0,3.272,1.465,3.272,3.272
			v287.948H262.059z"/>
		<rect x="268.603" y="130.908" fill="#E1EAEF" width="130.886" height="278.132"/>
		<rect x="275.147" y="130.908" opacity="0.5" fill="#A6B3BD" width="117.797" height="278.132"/>
		<polygon opacity="0.3" fill="#7C8B96" points="392.942,163.63 399.486,163.63 399.486,166.902 392.942,166.902 392.942,263.43 
			399.486,263.43 399.486,266.702 392.942,266.702 392.942,305.951 399.486,305.951 399.486,309.223 392.942,309.223 
			392.942,392.679 399.486,392.679 399.486,395.952 392.942,395.952 392.942,409.04 383.126,409.04 383.126,402.496 
			275.145,402.496 275.145,395.952 268.601,395.952 268.601,392.679 383.126,392.679 383.126,315.768 275.145,315.768 
			275.145,309.223 268.601,309.223 268.601,305.951 383.126,305.951 383.126,273.246 275.145,273.246 275.145,266.702 
			268.601,266.702 268.601,263.43 383.126,263.43 383.126,173.446 275.145,173.446 275.145,166.902 268.601,166.902 268.601,163.63 
			383.126,163.63 383.126,140.725 275.145,140.725 275.145,134.18 268.601,134.18 268.601,130.908 399.486,130.908 399.486,134.18 
			392.942,134.18 		"/>
		<rect x="262.059" y="418.856" fill="#525D65" width="13.087" height="9.817"/>
		<rect x="392.946" y="418.856" fill="#525D65" width="13.087" height="9.817"/>
		<rect x="262.059" y="415.584" fill="#525D65" width="143.974" height="6.544"/>
	</g>
	<rect x="425.666" y="104.731" opacity="0.5" fill="#E1EAEF" width="16.361" height="68.715"/>
	<path opacity="0.5" fill="#E1EAEF" d="M695.228,42.56L695.228,42.56c0,34.336-27.835,62.171-62.171,62.171H66.938
		c-34.336,0-62.171-27.835-62.171-62.171v0H695.228z"/>
	<path fill="#E1EAEF" d="M17.854,29.472h664.291c7.229,0,13.089,5.86,13.089,13.089l0,0c0,7.229-5.86,13.089-13.089,13.089H17.854
		c-7.229,0-13.089-5.86-13.089-13.089l0,0C4.766,35.331,10.626,29.472,17.854,29.472z"/>
	<path fill="#E1EAEF" d="M17.854,428.673h664.291c7.229,0,13.089,5.86,13.089,13.089l0,0c0,7.229-5.86,13.089-13.089,13.089H17.854
		c-7.229,0-13.089-5.86-13.089-13.089l0,0C4.766,434.533,10.626,428.673,17.854,428.673z"/>
	<g>
		<g>
			<g>
				<g opacity="0.5">
					<circle fill="#E1EAEF" cx="514.032" cy="127.922" r="48.135"/>
				</g>
				<g>
					<circle fill="#FFFFFF" cx="519.333" cy="122.621" r="48.135"/>
				</g>
			</g>
		</g>
		<g>
			<path fill="#A6B3BD" d="M546.437,143.624h-49.046c-2.184,0-3.955-1.771-3.955-3.955v-31.643c0-2.184,1.771-3.955,3.955-3.955
				h49.046c2.185,0,3.955,1.771,3.955,3.955v31.643C550.392,141.853,548.621,143.624,546.437,143.624z"/>
			<path fill="#CAD6DD" d="M548.019,140.752h-52.21c-1.311,0-2.373-1.062-2.373-2.373v-34.807c0-1.311,1.062-2.373,2.373-2.373
				h52.21c1.311,0,2.373,1.062,2.373,2.373v34.807C550.392,139.689,549.33,140.752,548.019,140.752z"/>
			<path fill="#222B32" d="M544.663,113.856H518.15c-1.416,0-2.565-1.148-2.565-2.565V97.435c0-1.416,1.148-2.565,2.565-2.565
				h26.513c1.416,0,2.565,1.148,2.565,2.565v13.856C547.228,112.707,546.08,113.856,544.663,113.856z"/>
			<path fill="#A6B3BD" d="M508.466,138.379h-7.911c-2.185,0-3.955-1.771-3.955-3.955V101.99h15.821v32.434
				C512.421,136.608,510.65,138.379,508.466,138.379z"/>
			<path fill="none" stroke="#525D65" stroke-width="2.5773" stroke-miterlimit="10" d="M493.445,108.006
				c-4.233,0-7.664,3.431-7.664,7.664v24.138c0,5.172,4.193,9.365,9.365,9.365h0c5.172,0,9.365-4.193,9.365-9.365v-5.457"/>
			<path fill="#222B32" d="M508.466,136.005h-7.911c-2.185,0-3.955-1.771-3.955-3.955V98.826c0-2.185,1.771-3.955,3.955-3.955h7.911
				c2.184,0,3.955,1.771,3.955,3.955v33.225C512.421,134.234,510.65,136.005,508.466,136.005z"/>
			<g>
				<path fill="#525D65" d="M520.727,121.766L520.727,121.766c-1.311,0-2.373-1.062-2.373-2.373l0,0
					c0-1.311,1.063-2.373,2.373-2.373l0,0c1.311,0,2.373,1.062,2.373,2.373l0,0C523.1,120.704,522.038,121.766,520.727,121.766z"/>
				<path fill="#525D65" d="M527.847,121.766L527.847,121.766c-1.311,0-2.373-1.062-2.373-2.373l0,0
					c0-1.311,1.062-2.373,2.373-2.373l0,0c1.311,0,2.373,1.062,2.373,2.373l0,0C530.22,120.704,529.158,121.766,527.847,121.766z"/>
				<path fill="#525D65" d="M534.966,121.766L534.966,121.766c-1.311,0-2.373-1.062-2.373-2.373l0,0
					c0-1.311,1.062-2.373,2.373-2.373l0,0c1.311,0,2.373,1.062,2.373,2.373l0,0C537.34,120.704,536.277,121.766,534.966,121.766z"/>
				<path fill="#525D65" d="M520.727,128.886L520.727,128.886c-1.311,0-2.373-1.062-2.373-2.373l0,0
					c0-1.311,1.063-2.373,2.373-2.373l0,0c1.311,0,2.373,1.062,2.373,2.373l0,0C523.1,127.823,522.038,128.886,520.727,128.886z"/>
				<path fill="#525D65" d="M527.847,128.886L527.847,128.886c-1.311,0-2.373-1.062-2.373-2.373l0,0
					c0-1.311,1.062-2.373,2.373-2.373l0,0c1.311,0,2.373,1.062,2.373,2.373l0,0C530.22,127.823,529.158,128.886,527.847,128.886z"/>
				<path fill="#525D65" d="M534.966,128.886L534.966,128.886c-1.311,0-2.373-1.062-2.373-2.373l0,0
					c0-1.311,1.062-2.373,2.373-2.373l0,0c1.311,0,2.373,1.062,2.373,2.373l0,0C537.34,127.823,536.277,128.886,534.966,128.886z"/>
				<path fill="#525D65" d="M520.727,136.005L520.727,136.005c-1.311,0-2.373-1.062-2.373-2.373l0,0
					c0-1.311,1.063-2.373,2.373-2.373l0,0c1.311,0,2.373,1.062,2.373,2.373l0,0C523.1,134.943,522.038,136.005,520.727,136.005z"/>
				<path fill="#525D65" d="M527.847,136.005L527.847,136.005c-1.311,0-2.373-1.062-2.373-2.373l0,0
					c0-1.311,1.062-2.373,2.373-2.373l0,0c1.311,0,2.373,1.062,2.373,2.373l0,0C530.22,134.943,529.158,136.005,527.847,136.005z"/>
				<path fill="#525D65" d="M534.966,136.005L534.966,136.005c-1.311,0-2.373-1.062-2.373-2.373l0,0
					c0-1.311,1.062-2.373,2.373-2.373l0,0c1.311,0,2.373,1.062,2.373,2.373l0,0C537.34,134.943,536.277,136.005,534.966,136.005z"/>
				<path fill="#3A993D" d="M542.086,121.766L542.086,121.766c-1.311,0-2.373-1.062-2.373-2.373l0,0
					c0-1.311,1.062-2.373,2.373-2.373l0,0c1.311,0,2.373,1.062,2.373,2.373l0,0C544.459,120.704,543.397,121.766,542.086,121.766z"
					/>
				<path fill="#525D65" d="M542.086,136.005L542.086,136.005c-1.311,0-2.373-1.062-2.373-2.373v-7.12
					c0-1.311,1.062-2.373,2.373-2.373l0,0c1.311,0,2.373,1.062,2.373,2.373v7.12C544.459,134.943,543.397,136.005,542.086,136.005z"
					/>
			</g>
			<rect x="501.346" y="130.468" fill="#525D65" width="6.328" height="1.582"/>
			<rect x="519.563" y="99.015" fill="#28A2ED" width="23.687" height="10.697"/>
		</g>
	</g>
	<g>
		<g>
			<g>
				<g opacity="0.5">
					<circle fill="#E1EAEF" cx="613.574" cy="186.695" r="48.135"/>
				</g>
				<g>
					<circle fill="#FFFFFF" cx="618.875" cy="181.394" r="48.135"/>
				</g>
			</g>
		</g>
		<g>
			<g>
				<path fill="#7C8B96" d="M630.15,208.638H607.6v-0.895c3.954,0,7.159-3.205,7.159-7.159h8.233c0,3.954,3.205,7.159,7.159,7.159
					V208.638z"/>
				<path fill="#222B32" d="M651.09,195.752H586.66v-34.899c0-2.965,2.404-5.369,5.369-5.369h53.691
					c2.965,0,5.369,2.404,5.369,5.369V195.752z"/>
				<path fill="#28A2ED" d="M646.789,186.908h-55.829v-25.706c0-0.943,0.764-1.708,1.708-1.708h52.414
					c0.943,0,1.708,0.765,1.708,1.708V186.908z"/>
				<path fill="#A6B3BD" d="M645.72,200.584h-53.691c-2.965,0-5.369-2.404-5.369-5.369v-4.295h64.429v4.295
					C651.09,198.18,648.686,200.584,645.72,200.584z"/>
				<circle fill="#222B32" cx="618.875" cy="195.752" r="2.416"/>
				<path fill="#A6B3BD" d="M628.36,210.249H609.39c-0.988,0-1.79-0.801-1.79-1.79v-1.432h22.55v1.432
					C630.15,209.447,629.349,210.249,628.36,210.249z"/>
			</g>
			<path fill="#FFFFFF" d="M616.459,175.618h-18.828v-7.935c0-1.63,1.322-2.952,2.952-2.952h12.925c1.63,0,2.952,1.322,2.952,2.952
				V175.618z"/>
			<path fill="#E1EAEF" d="M641.158,182.081h-21.003v-14.398c0-1.63,1.322-2.952,2.952-2.952h15.099c1.63,0,2.952,1.322,2.952,2.952
				V182.081z"/>
			<path fill="#CAD6DD" d="M616.459,167.387h-18.828l0,0c0-1.467,1.189-2.657,2.656-2.657h13.515
				C615.269,164.731,616.459,165.92,616.459,167.387L616.459,167.387z"/>
			<path fill="#A6B3BD" d="M641.158,167.387h-21.003l0,0c0-1.467,1.189-2.657,2.657-2.657h15.69
				C639.969,164.731,641.158,165.92,641.158,167.387L641.158,167.387z"/>
		</g>
	</g>
	<g>
		<g opacity="0.5">
			<path fill="#E1EAEF" d="M219.981,269.236c-0.29-0.263-0.672-0.427-1.094-0.427h-0.267c-0.01,0-0.018-0.003-0.028-0.003h-46.683
				c-1.425,0-2.686,0.922-3.118,2.279l-10.977,34.477l-4.27-0.683c-0.191-0.46-0.476-0.888-0.881-1.235l-6.747-5.781v-9.893
				c0-0.005-0.001-0.01-0.001-0.014v-6.53c0-5.447-3.327-10.117-8.061-12.088l-7.316-3.047c-1.022-1.651-2.515-2.975-4.296-3.786
				c0.025-0.234,0.04-0.471,0.04-0.712v-3.272c14.462,0,26.176-11.715,26.176-26.177h0v-0.001
				c10.658-0.007,17.865-2.196,16.093-4.908c-1.517-2.323-9.104-4.254-17.949-4.777c0,0,0,0,0,0.001
				c-3.849-9.663-13.281-16.492-24.32-16.492c-13.354,0-24.356,9.989-25.967,22.905h-0.014c-0.016,0.129-0.021,0.259-0.035,0.388
				c-0.026,0.236-0.045,0.473-0.065,0.711c-0.018,0.23-0.04,0.461-0.053,0.693c-0.027,0.49-0.044,0.983-0.044,1.48
				c0,9.693,5.265,18.144,13.089,22.669v6.728c-2.872,0.435-5.333,2.106-6.826,4.461l-8.217,2.709
				c-4.567,1.506-7.863,5.807-7.863,10.879v14.725c0,0.004,0.001,0.008,0.001,0.012v14.713c0,2.002,0.915,3.894,2.486,5.133
				c1.168,0.923,2.599,1.411,4.058,1.411c0.505,0,1.011-0.057,1.511-0.177l1.76-0.418v6.137l0.001,0v9.183h-0.001v34.358
				c0,0.002,0.001,0.005,0.001,0.007v80.146c0,0.005-0.001,0.01-0.001,0.015h0.001v0h13.089v0h13.088
				c0-7.231-5.857-13.088-13.088-13.088V363.23h-0.001c0-1.8,0.737-3.436,1.914-4.63c1.178-1.178,2.814-1.914,4.63-1.914
				c0.001,0,0.002,0,0.003,0c3.613,0.001,6.541,2.931,6.541,6.544v81.791c0,0.004-0.001,0.008-0.001,0.012h0.001v0h13.089v0h13.088
				c0-7.231-5.857-13.088-13.088-13.088V315.868l31.495,5.04c2.043,1.891,4.767,3.057,7.77,3.057c5.32,0,9.779-3.632,11.066-8.548
				h13.116c2.869,0,5.404-1.869,6.252-4.61l11.951-38.705C221.374,270.965,220.882,269.832,219.981,269.236z"/>
		</g>
		<g>
			<path fill="#FFFFFF" d="M165.55,266.702v53.99h-39.266v-55.626c0-7.231,5.857-13.089,13.089-13.089h13.089
				C159.693,251.977,165.55,257.834,165.55,266.702z"/>
			<path fill="#FFFFFF" d="M148.353,275.059h-7.497c-5.435,0-9.84-4.406-9.84-9.841v-10.121c0-5.435,4.406-9.84,9.84-9.84h7.497
				c5.435,0,9.84,4.406,9.84,9.84v10.121C158.194,270.653,153.788,275.059,148.353,275.059z"/>
			<g>
				
					<line fill="#FFFFFF" stroke="#073970" stroke-width="13.0886" stroke-linejoin="round" stroke-miterlimit="10" x1="159.006" y1="330.508" x2="159.006" y2="428.673"/>
				<path fill="#073970" d="M139.373,320.692v19.633h6.544c3.614,0,6.544,2.93,6.544,6.544l0,0c0,3.614,2.93,6.544,6.544,6.544l0,0
					c3.614,0,6.544-2.93,6.544-6.544v-26.177H139.373z"/>
				<path fill="#124B8A" d="M126.284,314.148v34.357c0,1.98,2.929,4.908,6.544,4.908c1.817,0,3.453-0.736,4.63-1.914
					c1.178-1.194,1.914-2.83,1.914-4.63c0-1.8,0.737-3.436,1.914-4.63c1.178-1.178,2.814-1.914,4.63-1.914
					c5.415,0,10.324-2.193,13.891-5.743c3.55-3.55,5.742-8.458,5.742-13.89v-6.544H126.284z"/>
				
					<line fill="#FFFFFF" stroke="#124B8A" stroke-width="13.0886" stroke-linejoin="round" stroke-miterlimit="10" x1="132.829" y1="346.869" x2="132.829" y2="428.673"/>
				<path fill="#7C8B96" d="M126.284,428.673h26.177c0-7.232-5.857-13.089-13.089-13.089
					C132.141,415.584,126.284,421.441,126.284,428.673z"/>
				<path fill="#525D65" d="M152.461,428.673h26.177c0-7.232-5.857-13.089-13.089-13.089
					C158.318,415.584,152.461,421.441,152.461,428.673z"/>
				<rect x="126.284" y="314.148" fill="#222B32" width="39.266" height="6.544"/>
				<path fill="#525D65" d="M152.981,319.844h-5.972c-0.884,0-1.6-0.716-1.6-1.6v-1.646c0-0.884,0.717-1.6,1.6-1.6h5.972
					c0.884,0,1.6,0.716,1.6,1.6v1.646C154.581,319.127,153.865,319.844,152.981,319.844z"/>
			</g>
			<path fill="#FFFFFF" d="M162.277,291.243h-13.089c-5.421,0-9.816-4.395-9.816-9.816v-19.633c0-5.421,4.395-9.816,9.816-9.816
				h9.817c1.781,0,3.48,0.356,5.028,1.001c4.733,1.971,8.061,6.641,8.061,12.088v16.361
				C172.093,286.848,167.699,291.243,162.277,291.243z"/>
			
				<polyline fill="none" stroke="#FFFFFF" stroke-width="13.0886" stroke-linecap="round" stroke-linejoin="round" stroke-miterlimit="10" points="
				165.549,271.61 165.549,292.879 200.426,298.459 			"/>
			<path fill="#FFFFFF" d="M126.284,287.971L126.284,287.971c-5.422,0-9.816-4.395-9.816-9.816V263.43
				c0-5.071,3.296-9.373,7.863-10.879c1.129-0.372,2.336-0.574,3.589-0.574l0,0c4.518,0,8.18,3.662,8.18,8.18v17.997
				C136.1,283.576,131.705,287.971,126.284,287.971z"/>
			<path opacity="0.5" fill="#E1EAEF" d="M136.101,292.743h-6.544v-22.764c0-1.807,1.465-3.272,3.272-3.272l0,0
				c1.807,0,3.272,1.465,3.272,3.272V292.743z"/>
			<path opacity="0.5" fill="#E1EAEF" d="M126.284,304.965l4.633-1.416c3.033-0.927,5.184-4.526,5.184-8.675v-7.039h-9.817V304.965z
				"/>
			<polygon fill="#FFFFFF" points="164.033,252.978 145.916,245.433 124.33,252.551 145.924,271.086 			"/>
			<circle fill="#FFCA98" cx="204.815" cy="296.151" r="11.452"/>
			<path fill="#FFCA98" d="M126.283,215.984c0,14.463,11.715,26.177,26.177,26.177s26.177-11.714,26.177-26.177
				c0-1.113-0.066-2.193-0.197-3.272H126.48C126.349,213.791,126.283,214.871,126.283,215.984z"/>
			<path fill="#CD6833" d="M126.283,215.984c0,5.464,1.702,10.569,4.581,14.757c3.403-10.471,13.252-18.03,24.868-18.03H126.48
				C126.349,213.791,126.283,214.871,126.283,215.984z"/>
			<path fill="#FF6000" d="M126.284,215.984h52.354c0-14.463-11.715-26.177-26.177-26.177S126.284,201.52,126.284,215.984z"/>
			<path fill="#E84F17" d="M155.733,215.984h22.856c10.686,0,17.917-2.193,16.141-4.908c-1.517-2.323-9.104-4.254-17.949-4.777
				c0,3.73-4.552,6.937-11.202,8.573C162.641,215.591,159.284,215.984,155.733,215.984z"/>
			
				<line fill="none" stroke="#FFCA98" stroke-width="13.0886" stroke-linecap="round" stroke-linejoin="round" stroke-miterlimit="10" x1="145.916" y1="245.433" x2="145.916" y2="232.344"/>
			<path fill="#124B8A" d="M148.888,256.002c0,0,0.132,0.144,0.38,0.414c0.215,0.172,0.696,0.922,1.096,1.621
				c0.175,0.34,0.391,0.725,0.583,1.14c0.177,0.411,0.385,0.862,0.578,1.342c0.374,0.956,0.752,2.039,1.111,3.219
				c0.726,2.358,1.356,5.117,1.94,8.072c0.576,2.955,1.115,6.108,1.544,9.262c0.439,3.154,0.818,6.31,1.138,9.269
				c0.151,1.48,0.298,2.911,0.436,4.268c0.046,0.678,0.161,1.34,0.193,1.979c0.002,0.638-0.529,1.237-0.849,1.817
				c-0.697,1.157-1.407,2.21-2.051,3.139c-0.649,0.928-1.256,1.732-1.774,2.392c-0.543,0.656-0.97,1.171-1.261,1.523
				c-0.317,0.349-0.486,0.535-0.486,0.535c-0.306,0.337-0.827,0.362-1.164,0.057c-0.041-0.037-0.077-0.077-0.108-0.119l-0.009-0.013
				c0,0-0.148-0.201-0.424-0.577c-0.255-0.374-0.628-0.924-1.103-1.622c-0.915-1.392-2.116-3.366-3.377-5.7
				c-0.279-0.583-0.777-1.194-0.738-1.809c0.072-0.615,0.213-1.248,0.294-1.902c0.187-1.307,0.385-2.686,0.589-4.111
				c0.391-2.853,0.773-5.9,1.096-8.945c0.314-3.045,0.618-6.091,0.792-8.936c0.183-2.845,0.242-5.488,0.202-7.717
				c-0.026-1.114-0.09-2.116-0.176-2.994c-0.057-0.428-0.11-0.829-0.159-1.199c-0.058-0.363-0.135-0.67-0.192-0.968
				c-0.061-0.307-0.112-0.431-0.152-0.631c-0.025-0.092-0.028-0.168-0.064-0.259c-0.051-0.101-0.098-0.192-0.139-0.274
				c-0.166-0.327-0.255-0.502-0.255-0.502l-0.01-0.021c-0.387-0.762-0.083-1.694,0.679-2.081
				C147.679,255.346,148.43,255.503,148.888,256.002z"/>
			<path fill="#124B8A" d="M148.966,260.038l-4.203-1.475c-0.557-0.195-0.773-0.868-0.435-1.352l2.46-3.515
				c0.311-0.444,0.943-0.51,1.339-0.14l4.025,3.768c0.445,0.417,0.35,1.148-0.188,1.436l-2.282,1.222
				C149.462,260.101,149.202,260.121,148.966,260.038z"/>
			<path fill="#CD6833" d="M157.359,235.616c5.39,0,10.52-4.385,11.462-9.816h-19.482
				C148.397,231.232,151.969,235.616,157.359,235.616z"/>
			
				<line fill="none" stroke="#FFCA98" stroke-width="13.0886" stroke-linecap="round" stroke-linejoin="round" stroke-miterlimit="10" x1="195.999" y1="297.751" x2="200.426" y2="298.459"/>
			<g>
				
					<polyline fill="none" stroke="#FFFFFF" stroke-width="13.0886" stroke-linecap="round" stroke-linejoin="round" stroke-miterlimit="10" points="
					123.011,271.61 123.011,292.879 160.31,284.022 				"/>
				<path fill="#FFCA98" d="M173.73,287.971c0-6.325-5.127-11.453-11.452-11.453c-6.325,0-11.452,5.128-11.452,11.453
					c0,6.325,5.257,8.701,9.816,8.701c4.56,0,9.816-2.376,9.816-8.701H173.73z"/>
				
					<line fill="none" stroke="#FFCA98" stroke-width="6.5443" stroke-linecap="round" stroke-linejoin="round" stroke-miterlimit="10" x1="167.768" y1="282.103" x2="176.713" y2="289.768"/>
				
					<line fill="none" stroke="#FFCA98" stroke-width="13.0886" stroke-linecap="round" stroke-linejoin="round" stroke-miterlimit="10" x1="154.293" y1="285.451" x2="160.31" y2="284.022"/>
			</g>
		</g>
		<g>
			<path fill="#7C8B96" d="M244.769,252.445c1.713,0,2.937,1.659,2.431,3.296l-11.951,38.705c-0.848,2.741-3.383,4.61-6.252,4.61
				h-53.632c-1.807,0-3.272-1.465-3.272-3.272v-3.272H186l12.756-40.066H244.769z"/>
			<path fill="#CAD6DD" d="M220.725,276.15c-0.701,2.259-2.76,4.09-4.601,4.09s-2.765-1.831-2.064-4.09
				c0.701-2.259,2.761-4.09,4.601-4.09S221.426,273.892,220.725,276.15z"/>
			<path fill="#A6B3BD" d="M151.144,292.511h31.794l12.03-37.787c0.432-1.357,1.693-2.279,3.118-2.279h37.084l3.062,3.272h-38.556
				c-0.717,0-1.351,0.467-1.563,1.152l-12.099,39.101c-0.568,1.834-2.263,3.084-4.183,3.084h-30.688
				c-1.807,0-3.272-1.465-3.272-3.272l0,0C147.871,293.976,149.336,292.511,151.144,292.511z"/>
			
				<line fill="none" stroke="#CAD6DD" stroke-width="3.2721" stroke-linecap="round" stroke-linejoin="round" stroke-miterlimit="10" x1="245.063" y1="254.085" x2="198.469" y2="254.085"/>
			<rect x="177.085" y="295.783" fill="#7C8B96" width="3.272" height="3.272"/>
			<rect x="171.257" y="295.783" fill="#7C8B96" width="3.272" height="3.272"/>
		</g>
	</g>
	<g>
		<rect x="268.603" y="376.318" fill="#525D65" width="130.886" height="16.361"/>
		<g>
			<path fill="#637079" d="M357.769,389.407c-0.217,0-0.425-0.087-0.578-0.24l-1.636-1.636c-0.153-0.153-0.24-0.361-0.24-0.578
				v-4.908c0-0.217,0.086-0.425,0.239-0.578l1.636-1.637c0.153-0.153,0.362-0.24,0.579-0.24h4.908c0.452,0,0.818,0.366,0.818,0.818
				v8.181c0,0.452-0.366,0.818-0.818,0.818H357.769z"/>
			<path fill="#222B32" d="M362.677,380.409v8.18h-4.908c-0.639-0.639-0.997-0.997-1.636-1.636v-4.908
				c0.639-0.639,0.997-0.997,1.636-1.636H362.677 M362.677,378.772h-4.908c-0.434,0-0.85,0.172-1.157,0.479l-1.636,1.636
				c-0.307,0.307-0.479,0.723-0.479,1.157v4.908c0,0.434,0.172,0.85,0.479,1.157l0.594,0.594l1.042,1.042
				c0.307,0.307,0.723,0.479,1.157,0.479h4.908c0.904,0,1.636-0.733,1.636-1.636v-8.18
				C364.313,379.505,363.58,378.772,362.677,378.772L362.677,378.772z"/>
		</g>
		<g>
			<path fill="#637079" d="M346.316,389.407c-0.217,0-0.425-0.087-0.579-0.24l-1.636-1.636c-0.153-0.153-0.239-0.361-0.239-0.578
				v-4.908c0-0.217,0.086-0.425,0.239-0.578l1.636-1.637c0.154-0.153,0.362-0.24,0.579-0.24h4.909c0.452,0,0.818,0.366,0.818,0.818
				v8.181c0,0.452-0.366,0.818-0.818,0.818H346.316z"/>
			<path fill="#222B32" d="M351.224,380.409v8.18h-4.908c-0.639-0.639-0.997-0.997-1.636-1.636v-4.908
				c0.639-0.639,0.997-0.997,1.636-1.636H351.224 M351.224,378.772h-4.908c-0.434,0-0.85,0.172-1.157,0.479l-1.042,1.042
				l-0.594,0.594c-0.307,0.307-0.479,0.723-0.479,1.157v4.908c0,0.434,0.172,0.85,0.479,1.157l1.636,1.636
				c0.307,0.307,0.723,0.479,1.157,0.479h4.908c0.904,0,1.636-0.733,1.636-1.636v-8.18
				C352.86,379.505,352.128,378.772,351.224,378.772L351.224,378.772z"/>
		</g>
		<g>
			<path fill="#525D65" d="M334.864,389.407c-0.217,0-0.425-0.086-0.578-0.239l-1.636-1.636c-0.154-0.154-0.24-0.362-0.24-0.579
				v-4.908c0-0.217,0.086-0.425,0.239-0.578l1.636-1.637c0.153-0.153,0.361-0.24,0.579-0.24h4.908c0.452,0,0.818,0.366,0.818,0.818
				v8.181c0,0.452-0.366,0.818-0.818,0.818H334.864z"/>
			<path fill="#222B32" d="M339.772,380.409v8.18h-4.908c-0.639-0.639-0.997-0.997-1.636-1.636v-4.908
				c0.639-0.639,0.997-0.997,1.636-1.636H339.772 M339.772,378.772h-4.908c-0.434,0-0.85,0.172-1.157,0.479l-1.042,1.042
				l-0.594,0.594c-0.307,0.307-0.479,0.723-0.479,1.157v4.908c0,0.434,0.172,0.85,0.479,1.157l1.636,1.636
				c0.307,0.307,0.723,0.479,1.157,0.479h4.908c0.904,0,1.636-0.733,1.636-1.636v-8.18
				C341.408,379.505,340.675,378.772,339.772,378.772L339.772,378.772z"/>
		</g>
		<rect x="336.719" y="381.846" fill="#222B32" width="1.636" height="0.95"/>
		<rect x="336.719" y="386.201" fill="#222B32" width="1.636" height="0.95"/>
		<rect x="334.644" y="384.024" fill="#222B32" width="1.636" height="0.95"/>
		<g>
			<path fill="#525D65" d="M323.411,389.407c-0.217,0-0.425-0.087-0.579-0.24l-1.636-1.635c-0.154-0.154-0.24-0.362-0.24-0.579
				v-4.908c0-0.217,0.086-0.425,0.239-0.578l1.636-1.637c0.154-0.153,0.362-0.24,0.579-0.24h4.908c0.452,0,0.818,0.366,0.818,0.818
				v8.181c0,0.452-0.366,0.818-0.818,0.818H323.411z"/>
			<path fill="#222B32" d="M328.319,380.409v8.18h-4.908c-0.639-0.639-0.997-0.997-1.636-1.636v-4.908
				c0.639-0.639,0.997-0.997,1.636-1.636H328.319 M328.319,378.772h-4.908c-0.434,0-0.85,0.172-1.157,0.479l-1.322,1.322
				l-0.314,0.314c-0.307,0.307-0.479,0.723-0.479,1.157v4.908c0,0.434,0.172,0.85,0.479,1.157l1.086,1.086l0.549,0.55
				c0.307,0.307,0.723,0.479,1.157,0.479h4.908c0.904,0,1.636-0.733,1.636-1.636v-8.18
				C329.955,379.505,329.223,378.772,328.319,378.772L328.319,378.772z"/>
		</g>
		<rect x="325.267" y="381.846" fill="#222B32" width="1.636" height="0.95"/>
		<rect x="325.267" y="386.201" fill="#222B32" width="1.636" height="0.95"/>
		<rect x="323.192" y="384.024" fill="#222B32" width="1.636" height="0.95"/>
		<g>
			<path fill="#525D65" d="M311.958,389.407c-0.217,0-0.425-0.087-0.579-0.24l-1.636-1.636c-0.153-0.153-0.239-0.361-0.239-0.578
				v-4.908c0-0.217,0.086-0.425,0.239-0.578l1.636-1.637c0.154-0.153,0.362-0.24,0.579-0.24h4.908c0.452,0,0.818,0.366,0.818,0.818
				v8.181c0,0.452-0.366,0.818-0.818,0.818H311.958z"/>
			<path fill="#222B32" d="M316.867,380.409v8.18h-4.908c-0.639-0.639-0.997-0.997-1.636-1.636v-4.908
				c0.639-0.639,0.997-0.997,1.636-1.636H316.867 M316.867,378.772h-4.908c-0.434,0-0.85,0.172-1.157,0.479l-1.636,1.636
				c-0.307,0.307-0.479,0.723-0.479,1.157v4.908c0,0.434,0.172,0.85,0.479,1.157l0.594,0.594l1.042,1.042
				c0.307,0.307,0.723,0.479,1.157,0.479h4.908c0.904,0,1.636-0.733,1.636-1.636v-8.18
				C318.503,379.505,317.77,378.772,316.867,378.772L316.867,378.772z"/>
		</g>
		<rect x="313.814" y="381.846" fill="#222B32" width="1.636" height="0.95"/>
		<rect x="313.814" y="386.201" fill="#222B32" width="1.636" height="0.95"/>
		<rect x="311.739" y="384.024" fill="#222B32" width="1.636" height="0.95"/>
		<g>
			<path fill="#525D65" d="M300.506,389.407c-0.217,0-0.425-0.086-0.578-0.239l-1.637-1.637c-0.153-0.153-0.239-0.361-0.239-0.578
				v-4.908c0-0.217,0.086-0.425,0.239-0.578l1.637-1.637c0.153-0.153,0.361-0.24,0.579-0.24h4.908c0.452,0,0.818,0.366,0.818,0.818
				v8.181c0,0.452-0.366,0.818-0.818,0.818H300.506z"/>
			<path fill="#222B32" d="M305.414,380.409v8.18h-4.908c-0.639-0.639-0.997-0.997-1.636-1.636v-4.908
				c0.639-0.639,0.997-0.997,1.636-1.636H305.414 M305.414,378.772h-4.908c-0.434,0-0.85,0.172-1.157,0.479l-1.042,1.042
				l-0.594,0.594c-0.307,0.307-0.479,0.723-0.479,1.157v4.908c0,0.434,0.172,0.85,0.479,1.157l0.931,0.931l0.705,0.705
				c0.307,0.307,0.723,0.479,1.157,0.479h4.908c0.904,0,1.636-0.733,1.636-1.636v-8.18
				C307.05,379.505,306.318,378.772,305.414,378.772L305.414,378.772z"/>
		</g>
		<rect x="302.362" y="381.846" fill="#222B32" width="1.636" height="0.95"/>
		<rect x="302.362" y="386.201" fill="#222B32" width="1.636" height="0.95"/>
		<rect x="300.287" y="384.024" fill="#222B32" width="1.636" height="0.95"/>
		<g>
			<path fill="#525D65" d="M289.054,389.407c-0.217,0-0.425-0.086-0.578-0.239l-1.636-1.636c-0.154-0.154-0.24-0.362-0.24-0.579
				v-4.908c0-0.217,0.086-0.425,0.239-0.578l1.636-1.637c0.153-0.153,0.361-0.24,0.579-0.24h4.908c0.452,0,0.818,0.366,0.818,0.818
				v8.181c0,0.452-0.366,0.818-0.818,0.818H289.054z"/>
			<path fill="#222B32" d="M293.962,380.409v8.18h-4.908c-0.639-0.639-0.997-0.997-1.636-1.636v-4.908
				c0.639-0.639,0.997-0.997,1.636-1.636H293.962 M293.962,378.772h-4.908c-0.434,0-0.85,0.172-1.157,0.479l-1.042,1.042
				l-0.594,0.594c-0.307,0.307-0.479,0.723-0.479,1.157v4.908c0,0.434,0.172,0.85,0.479,1.157l1.636,1.636
				c0.307,0.307,0.723,0.479,1.157,0.479h4.908c0.904,0,1.636-0.733,1.636-1.636v-8.18
				C295.598,379.505,294.865,378.772,293.962,378.772L293.962,378.772z"/>
		</g>
		<rect x="290.909" y="381.846" fill="#222B32" width="1.636" height="0.95"/>
		<rect x="290.909" y="386.201" fill="#222B32" width="1.636" height="0.95"/>
		<rect x="288.834" y="384.024" fill="#222B32" width="1.636" height="0.95"/>
		<g>
			<path fill="#525D65" d="M277.601,389.407c-0.217,0-0.425-0.087-0.579-0.24l-1.636-1.636c-0.153-0.153-0.239-0.361-0.239-0.578
				v-4.908c0-0.217,0.086-0.425,0.239-0.578l1.636-1.637c0.154-0.153,0.362-0.24,0.579-0.24h4.908c0.452,0,0.818,0.366,0.818,0.818
				v8.181c0,0.452-0.366,0.818-0.818,0.818H277.601z"/>
			<path fill="#222B32" d="M282.509,380.409v8.18h-4.908c-0.639-0.639-0.997-0.997-1.636-1.636v-4.908
				c0.639-0.639,0.997-0.997,1.636-1.636H282.509 M282.509,378.772h-4.908c-0.434,0-0.85,0.172-1.157,0.479l-1.322,1.322
				l-0.314,0.314c-0.307,0.307-0.479,0.723-0.479,1.157v4.908c0,0.434,0.172,0.85,0.479,1.157l1.086,1.086l0.55,0.55
				c0.307,0.307,0.723,0.479,1.157,0.479h4.908c0.904,0,1.636-0.733,1.636-1.636v-8.18
				C284.146,379.505,283.413,378.772,282.509,378.772L282.509,378.772z"/>
		</g>
		<rect x="279.457" y="381.846" fill="#222B32" width="1.636" height="0.95"/>
		<rect x="279.457" y="386.201" fill="#222B32" width="1.636" height="0.95"/>
		<rect x="277.382" y="384.024" fill="#222B32" width="1.636" height="0.95"/>
		<rect x="370.039" y="381.227" fill="#222B32" width="13.089" height="6.544"/>
		<rect x="389.672" y="384.499" fill="#A6B3BD" width="6.544" height="5.726"/>
		<rect x="391.308" y="386.135" fill="#7C8B96" width="3.272" height="4.09"/>
		<rect x="391.308" y="386.135" fill="#222B32" width="3.272" height="3.272"/>
		<circle fill="#222B32" cx="392.944" cy="381.227" r="1.636"/>
		<rect x="379.856" y="382.863" fill="#3AC03D" width="1.636" height="3.272"/>
		<rect x="376.583" y="382.863" fill="#3AC03D" width="1.636" height="3.272"/>
	</g>
	<path fill="none" stroke="#637079" stroke-width="3" stroke-linecap="round" stroke-miterlimit="10" d="M386.4,299.41v28.244
		c0,10.732-4.263,21.024-11.852,28.612l-8.751,8.751c-4.093,4.093-6.393,9.645-6.393,15.433v4.048"/>
	<path fill="none" stroke="#637079" stroke-width="3" stroke-linecap="round" stroke-miterlimit="10" d="M374.947,259.549v67.128
		c0,8.215-3.263,16.093-9.072,21.902l-9.085,9.085c-5.659,5.659-8.838,13.335-8.838,21.338v5.497"/>
	<g>
		<rect x="268.603" y="147.269" fill="#525D65" width="130.886" height="16.361"/>
		<rect x="384.764" y="150.541" fill="#A6B3BD" width="11.452" height="9.816"/>
		<rect x="386.4" y="156.267" fill="#7C8B96" width="3.272" height="4.09"/>
		<rect x="386.4" y="150.541" fill="#7C8B96" width="3.272" height="4.09"/>
		<rect x="386.4" y="156.267" fill="#222B32" width="3.272" height="3.272"/>
		<rect x="386.4" y="151.359" fill="#222B32" width="3.272" height="3.272"/>
		<rect x="391.308" y="156.382" fill="#525D65" width="3.272" height="4.665"/>
		<rect x="391.308" y="149.851" fill="#525D65" width="3.272" height="4.665"/>
		<rect x="391.308" y="156.267" fill="#222B32" width="3.272" height="3.272"/>
		<rect x="391.308" y="151.359" fill="#222B32" width="3.272" height="3.272"/>
		<rect x="317.685" y="150.541" fill="#A6B3BD" width="62.171" height="9.816"/>
		<rect x="374.947" y="156.267" fill="#7C8B96" width="3.272" height="4.09"/>
		<rect x="370.039" y="156.267" fill="#7C8B96" width="3.272" height="4.09"/>
		<rect x="365.131" y="156.267" fill="#7C8B96" width="3.272" height="4.09"/>
		<rect x="360.223" y="156.267" fill="#7C8B96" width="3.272" height="4.09"/>
		<rect x="355.314" y="156.267" fill="#7C8B96" width="3.272" height="4.09"/>
		<rect x="350.406" y="156.267" fill="#7C8B96" width="3.272" height="4.09"/>
		<rect x="343.862" y="156.267" fill="#7C8B96" width="3.272" height="4.09"/>
		<rect x="338.954" y="156.267" fill="#7C8B96" width="3.272" height="4.09"/>
		<rect x="334.046" y="156.267" fill="#7C8B96" width="3.272" height="4.09"/>
		<rect x="329.137" y="156.267" fill="#7C8B96" width="3.272" height="4.09"/>
		<rect x="324.229" y="156.267" fill="#7C8B96" width="3.272" height="4.09"/>
		<rect x="319.321" y="156.267" fill="#7C8B96" width="3.272" height="4.09"/>
		<rect x="374.947" y="156.267" fill="#222B32" width="3.272" height="3.272"/>
		<rect x="374.947" y="150.541" fill="#7C8B96" width="3.272" height="4.09"/>
		<rect x="370.039" y="150.541" fill="#7C8B96" width="3.272" height="4.09"/>
		<rect x="365.131" y="150.541" fill="#7C8B96" width="3.272" height="4.09"/>
		<rect x="360.223" y="150.541" fill="#7C8B96" width="3.272" height="4.09"/>
		<rect x="355.314" y="150.541" fill="#7C8B96" width="3.272" height="4.09"/>
		<rect x="350.406" y="150.541" fill="#7C8B96" width="3.272" height="4.09"/>
		<rect x="343.862" y="150.541" fill="#7C8B96" width="3.272" height="4.09"/>
		<rect x="338.954" y="150.541" fill="#7C8B96" width="3.272" height="4.09"/>
		<rect x="334.046" y="150.541" fill="#7C8B96" width="3.272" height="4.09"/>
		<rect x="329.137" y="150.541" fill="#7C8B96" width="3.272" height="4.09"/>
		<rect x="324.229" y="150.541" fill="#7C8B96" width="3.272" height="4.09"/>
		<rect x="319.321" y="150.541" fill="#7C8B96" width="3.272" height="4.09"/>
		<rect x="374.947" y="151.359" fill="#222B32" width="3.272" height="3.272"/>
		<rect x="370.039" y="156.267" fill="#222B32" width="3.272" height="3.272"/>
		<rect x="370.039" y="151.359" fill="#222B32" width="3.272" height="3.272"/>
		<rect x="365.131" y="156.267" fill="#222B32" width="3.272" height="3.272"/>
		<rect x="365.131" y="151.359" fill="#222B32" width="3.272" height="3.272"/>
		<rect x="360.223" y="156.267" fill="#222B32" width="3.272" height="3.272"/>
		<rect x="360.223" y="151.359" fill="#222B32" width="3.272" height="3.272"/>
		<rect x="355.314" y="156.267" fill="#222B32" width="3.272" height="3.272"/>
		<rect x="355.314" y="151.359" fill="#222B32" width="3.272" height="3.272"/>
		<rect x="350.406" y="156.267" fill="#222B32" width="3.272" height="3.272"/>
		<rect x="350.406" y="151.359" fill="#222B32" width="3.272" height="3.272"/>
		<rect x="343.862" y="156.267" fill="#222B32" width="3.272" height="3.272"/>
		<rect x="343.862" y="151.359" fill="#222B32" width="3.272" height="3.272"/>
		<rect x="338.954" y="156.267" fill="#222B32" width="3.272" height="3.272"/>
		<rect x="338.954" y="151.359" fill="#222B32" width="3.272" height="3.272"/>
		<rect x="334.046" y="156.267" fill="#222B32" width="3.272" height="3.272"/>
		<rect x="334.046" y="151.359" fill="#222B32" width="3.272" height="3.272"/>
		<rect x="329.137" y="156.267" fill="#222B32" width="3.272" height="3.272"/>
		<rect x="329.137" y="151.359" fill="#222B32" width="3.272" height="3.272"/>
		<rect x="324.229" y="156.267" fill="#222B32" width="3.272" height="3.272"/>
		<rect x="324.229" y="151.359" fill="#222B32" width="3.272" height="3.272"/>
		<rect x="319.321" y="156.267" fill="#222B32" width="3.272" height="3.272"/>
		<g>
			<rect x="319.321" y="151.359" fill="#222B32" width="3.272" height="3.272"/>
		</g>
		<g>
			<path fill="#7C8B96" d="M271.875,153.813h9.817v-1.48c0-0.99-0.802-1.792-1.792-1.792h-6.233c-0.99,0-1.792,0.802-1.792,1.792
				V153.813z"/>
		</g>
	</g>
	<g>
		<g>
			<rect x="268.603" y="237.253" fill="#525D65" width="130.886" height="26.177"/>
		</g>
		<g>
			<rect x="268.603" y="233.98" fill="#222B32" width="130.886" height="6.544"/>
		</g>
		<g>
			<path fill="#525D65" d="M281.691,238.889h-9.817v-1.636c0-0.904,0.733-1.636,1.636-1.636h6.544c0.904,0,1.636,0.733,1.636,1.636
				V238.889z"/>
		</g>
		<g>
			<rect x="379.856" y="236.435" fill="#525D65" width="13.089" height="1.636"/>
		</g>
		<g>
			<g>
				<path fill="#222B32" d="M392.126,243.796H275.965c-0.452,0-0.818-0.366-0.818-0.818s0.366-0.818,0.818-0.818h116.161
					c0.452,0,0.818,0.366,0.818,0.818S392.578,243.796,392.126,243.796z"/>
			</g>
			<g>
				<path fill="#222B32" d="M392.126,247.073H275.965c-0.452,0-0.818-0.366-0.818-0.818s0.366-0.818,0.818-0.818h116.161
					c0.452,0,0.818,0.366,0.818,0.818S392.578,247.073,392.126,247.073z"/>
			</g>
			<g>
				<path fill="#222B32" d="M392.126,250.35H275.965c-0.452,0-0.818-0.366-0.818-0.818s0.366-0.818,0.818-0.818h116.161
					c0.452,0,0.818,0.366,0.818,0.818S392.578,250.35,392.126,250.35z"/>
			</g>
			<g>
				<path fill="#222B32" d="M290.313,253.63h-14.348c-0.452,0-0.818-0.366-0.818-0.818s0.366-0.818,0.818-0.818h14.348
					c0.452,0,0.818,0.366,0.818,0.818S290.765,253.63,290.313,253.63z"/>
			</g>
			<g>
				<path fill="#222B32" d="M392.126,253.63h-80.543c-0.452,0-0.818-0.366-0.818-0.818s0.366-0.818,0.818-0.818h80.543
					c0.452,0,0.818,0.366,0.818,0.818S392.578,253.63,392.126,253.63z"/>
			</g>
			<g>
				<path fill="#222B32" d="M290.313,256.902h-14.348c-0.452,0-0.818-0.366-0.818-0.818s0.366-0.818,0.818-0.818h14.348
					c0.452,0,0.818,0.366,0.818,0.818S290.765,256.902,290.313,256.902z"/>
			</g>
			<g>
				<path fill="#222B32" d="M392.126,256.902h-80.543c-0.452,0-0.818-0.366-0.818-0.818s0.366-0.818,0.818-0.818h80.543
					c0.452,0,0.818,0.366,0.818,0.818S392.578,256.902,392.126,256.902z"/>
			</g>
			<g>
				<path fill="#222B32" d="M290.313,260.175h-14.348c-0.452,0-0.818-0.366-0.818-0.818s0.366-0.818,0.818-0.818h14.348
					c0.452,0,0.818,0.366,0.818,0.818S290.765,260.175,290.313,260.175z"/>
			</g>
			<g>
				<path fill="#222B32" d="M392.126,260.175h-80.543c-0.452,0-0.818-0.366-0.818-0.818s0.366-0.818,0.818-0.818h80.543
					c0.452,0,0.818,0.366,0.818,0.818S392.578,260.175,392.126,260.175z"/>
			</g>
		</g>
		<g opacity="0.5">
			<g>
				<path fill="#7C8B96" d="M397.853,245.437H270.239c-0.452,0-0.818-0.366-0.818-0.818s0.366-0.818,0.818-0.818h127.614
					c0.452,0,0.818,0.366,0.818,0.818S398.305,245.437,397.853,245.437z"/>
			</g>
			<g>
				<path fill="#7C8B96" d="M397.853,248.714H270.239c-0.452,0-0.818-0.366-0.818-0.818s0.366-0.818,0.818-0.818h127.614
					c0.452,0,0.818,0.366,0.818,0.818S398.305,248.714,397.853,248.714z"/>
			</g>
			<g>
				<path fill="#7C8B96" d="M397.853,251.994H270.239c-0.452,0-0.818-0.366-0.818-0.818s0.366-0.818,0.818-0.818h127.614
					c0.452,0,0.818,0.366,0.818,0.818S398.305,251.994,397.853,251.994z"/>
			</g>
			<g>
				<path fill="#7C8B96" d="M291.95,255.267h-21.711c-0.452,0-0.818-0.366-0.818-0.818s0.366-0.818,0.818-0.818h21.711
					c0.452,0,0.818,0.366,0.818,0.818S292.401,255.267,291.95,255.267z"/>
			</g>
			<g>
				<path fill="#7C8B96" d="M397.853,255.267h-87.906c-0.452,0-0.818-0.366-0.818-0.818s0.366-0.818,0.818-0.818h87.906
					c0.452,0,0.818,0.366,0.818,0.818S398.305,255.267,397.853,255.267z"/>
			</g>
			<g>
				<path fill="#7C8B96" d="M291.95,258.538h-21.711c-0.452,0-0.818-0.366-0.818-0.818s0.366-0.818,0.818-0.818h21.711
					c0.452,0,0.818,0.366,0.818,0.818S292.401,258.538,291.95,258.538z"/>
			</g>
			<g>
				<path fill="#7C8B96" d="M397.853,258.538h-87.906c-0.452,0-0.818-0.366-0.818-0.818s0.366-0.818,0.818-0.818h87.906
					c0.452,0,0.818,0.366,0.818,0.818S398.305,258.538,397.853,258.538z"/>
			</g>
			<g>
				<path fill="#7C8B96" d="M291.95,261.811h-21.711c-0.452,0-0.818-0.366-0.818-0.818s0.366-0.818,0.818-0.818h21.711
					c0.452,0,0.818,0.366,0.818,0.818S292.401,261.811,291.95,261.811z"/>
			</g>
			<g>
				<path fill="#7C8B96" d="M397.853,261.811h-87.906c-0.452,0-0.818-0.366-0.818-0.818s0.366-0.818,0.818-0.818h87.906
					c0.452,0,0.818,0.366,0.818,0.818S398.305,261.811,397.853,261.811z"/>
			</g>
			<g>
				<path fill="#7C8B96" d="M309.946,261.811c-0.452,0-0.818-0.366-0.818-0.818v-8.998h-16.361v8.998
					c0,0.452-0.366,0.818-0.818,0.818s-0.818-0.366-0.818-0.818v-9.816c0-0.452,0.366-0.818,0.818-0.818h17.997
					c0.452,0,0.818,0.366,0.818,0.818v9.816C310.764,261.444,310.398,261.811,309.946,261.811z"/>
			</g>
		</g>
		<g>
			<rect x="302.591" y="256.899" fill="#7C8B96" width="3.272" height="3.272"/>
		</g>
		<g>
			<rect x="296.047" y="256.899" fill="#7C8B96" width="3.272" height="3.272"/>
		</g>
		<g>
			<rect x="302.591" y="255.263" fill="#222B32" width="3.272" height="3.272"/>
		</g>
		<g>
			<rect x="296.047" y="255.263" fill="#222B32" width="3.272" height="3.272"/>
		</g>
	</g>
	<g>
		<g>
			<rect x="268.603" y="279.777" fill="#525D65" width="130.886" height="26.177"/>
		</g>
		<g>
			<rect x="268.603" y="276.505" fill="#222B32" width="130.886" height="6.544"/>
		</g>
		<g>
			<path fill="#525D65" d="M281.691,281.414h-9.817v-1.636c0-0.904,0.733-1.636,1.636-1.636h6.544c0.904,0,1.636,0.733,1.636,1.636
				V281.414z"/>
		</g>
		<g>
			<rect x="379.856" y="278.96" fill="#525D65" width="13.089" height="1.636"/>
		</g>
		<g>
			<g>
				<path fill="#222B32" d="M392.126,286.321H275.965c-0.452,0-0.818-0.366-0.818-0.818s0.366-0.818,0.818-0.818h116.161
					c0.452,0,0.818,0.366,0.818,0.818S392.578,286.321,392.126,286.321z"/>
			</g>
			<g>
				<path fill="#222B32" d="M392.126,289.598H275.965c-0.452,0-0.818-0.366-0.818-0.818s0.366-0.818,0.818-0.818h116.161
					c0.452,0,0.818,0.366,0.818,0.818S392.578,289.598,392.126,289.598z"/>
			</g>
			<g>
				<path fill="#222B32" d="M392.126,292.875H275.965c-0.452,0-0.818-0.366-0.818-0.818s0.366-0.818,0.818-0.818h116.161
					c0.452,0,0.818,0.366,0.818,0.818S392.578,292.875,392.126,292.875z"/>
			</g>
			<g>
				<path fill="#222B32" d="M290.313,296.155h-14.348c-0.452,0-0.818-0.366-0.818-0.818s0.366-0.818,0.818-0.818h14.348
					c0.452,0,0.818,0.366,0.818,0.818S290.765,296.155,290.313,296.155z"/>
			</g>
			<g>
				<path fill="#222B32" d="M392.126,296.155h-80.543c-0.452,0-0.818-0.366-0.818-0.818s0.366-0.818,0.818-0.818h80.543
					c0.452,0,0.818,0.366,0.818,0.818S392.578,296.155,392.126,296.155z"/>
			</g>
			<g>
				<path fill="#222B32" d="M290.313,299.427h-14.348c-0.452,0-0.818-0.366-0.818-0.818s0.366-0.818,0.818-0.818h14.348
					c0.452,0,0.818,0.366,0.818,0.818S290.765,299.427,290.313,299.427z"/>
			</g>
			<g>
				<path fill="#222B32" d="M392.126,299.427h-80.543c-0.452,0-0.818-0.366-0.818-0.818s0.366-0.818,0.818-0.818h80.543
					c0.452,0,0.818,0.366,0.818,0.818S392.578,299.427,392.126,299.427z"/>
			</g>
			<g>
				<path fill="#222B32" d="M290.313,302.699h-14.348c-0.452,0-0.818-0.366-0.818-0.818s0.366-0.818,0.818-0.818h14.348
					c0.452,0,0.818,0.366,0.818,0.818S290.765,302.699,290.313,302.699z"/>
			</g>
			<g>
				<path fill="#222B32" d="M392.126,302.699h-80.543c-0.452,0-0.818-0.366-0.818-0.818s0.366-0.818,0.818-0.818h80.543
					c0.452,0,0.818,0.366,0.818,0.818S392.578,302.699,392.126,302.699z"/>
			</g>
		</g>
		<g opacity="0.5">
			<g>
				<path fill="#7C8B96" d="M397.853,287.962H270.239c-0.452,0-0.818-0.366-0.818-0.818s0.366-0.818,0.818-0.818h127.614
					c0.452,0,0.818,0.366,0.818,0.818S398.305,287.962,397.853,287.962z"/>
			</g>
			<g>
				<path fill="#7C8B96" d="M397.853,291.238H270.239c-0.452,0-0.818-0.366-0.818-0.818s0.366-0.818,0.818-0.818h127.614
					c0.452,0,0.818,0.366,0.818,0.818S398.305,291.238,397.853,291.238z"/>
			</g>
			<g>
				<path fill="#7C8B96" d="M397.853,294.519H270.239c-0.452,0-0.818-0.366-0.818-0.818s0.366-0.818,0.818-0.818h127.614
					c0.452,0,0.818,0.366,0.818,0.818S398.305,294.519,397.853,294.519z"/>
			</g>
			<g>
				<path fill="#7C8B96" d="M291.95,297.791h-21.711c-0.452,0-0.818-0.366-0.818-0.818s0.366-0.818,0.818-0.818h21.711
					c0.452,0,0.818,0.366,0.818,0.818S292.401,297.791,291.95,297.791z"/>
			</g>
			<g>
				<path fill="#7C8B96" d="M397.853,297.791h-87.906c-0.452,0-0.818-0.366-0.818-0.818s0.366-0.818,0.818-0.818h87.906
					c0.452,0,0.818,0.366,0.818,0.818S398.305,297.791,397.853,297.791z"/>
			</g>
			<g>
				<path fill="#7C8B96" d="M291.95,301.063h-21.711c-0.452,0-0.818-0.366-0.818-0.818s0.366-0.818,0.818-0.818h21.711
					c0.452,0,0.818,0.366,0.818,0.818S292.401,301.063,291.95,301.063z"/>
			</g>
			<g>
				<path fill="#7C8B96" d="M397.853,301.063h-87.906c-0.452,0-0.818-0.366-0.818-0.818s0.366-0.818,0.818-0.818h87.906
					c0.452,0,0.818,0.366,0.818,0.818S398.305,301.063,397.853,301.063z"/>
			</g>
			<g>
				<path fill="#7C8B96" d="M291.95,304.335h-21.711c-0.452,0-0.818-0.366-0.818-0.818s0.366-0.818,0.818-0.818h21.711
					c0.452,0,0.818,0.366,0.818,0.818S292.401,304.335,291.95,304.335z"/>
			</g>
			<g>
				<path fill="#7C8B96" d="M397.853,304.335h-87.906c-0.452,0-0.818-0.366-0.818-0.818s0.366-0.818,0.818-0.818h87.906
					c0.452,0,0.818,0.366,0.818,0.818S398.305,304.335,397.853,304.335z"/>
			</g>
			<g>
				<path fill="#7C8B96" d="M309.946,304.335c-0.452,0-0.818-0.366-0.818-0.818v-8.998h-16.361v8.998
					c0,0.452-0.366,0.818-0.818,0.818s-0.818-0.366-0.818-0.818V293.7c0-0.452,0.366-0.818,0.818-0.818h17.997
					c0.452,0,0.818,0.366,0.818,0.818v9.816C310.764,303.969,310.398,304.335,309.946,304.335z"/>
			</g>
		</g>
		<g>
			<rect x="302.591" y="299.424" fill="#7C8B96" width="3.272" height="3.272"/>
		</g>
		<g>
			<rect x="296.047" y="299.424" fill="#7C8B96" width="3.272" height="3.272"/>
		</g>
		<g>
			<rect x="302.591" y="297.788" fill="#222B32" width="3.272" height="3.272"/>
		</g>
		<g>
			<rect x="296.047" y="297.788" fill="#222B32" width="3.272" height="3.272"/>
		</g>
	</g>
	<g>
		<g>
			<path fill="#FFDC00" d="M350.231,246.263c0.832-0.203,1.689-0.04,2.523,0.066c1.161,0.18,2.363,0.596,3.158,1.503
				c0.794,0.997,1.157,2.431,0.646,3.638c-0.269,0.694-0.86,1.245-1.556,1.498c-0.95,0.379-1.996,0.312-2.996,0.27
				c-0.001,0.859,0.02,1.723-0.038,2.581c-0.176,0.337-0.598,0.37-0.929,0.442c-0.711,0.083-1.549,0.046-2.098-0.471
				c-0.366-0.33-0.236-0.861-0.253-1.295c0.028-2.475-0.441-5.049,0.451-7.432C349.279,246.582,349.771,246.342,350.231,246.263
				 M351.632,248.419c0.054,0.778,0.084,1.557,0.166,2.333c0.604-0.018,1.225-0.058,1.792-0.287
				c0.709-0.249,0.611-1.295,0.121-1.711C353.124,248.305,352.325,248.367,351.632,248.419z"/>
		</g>
		<g>
			<path fill="#FFDC00" d="M342.203,246.445c1.14-0.254,2.38-0.158,3.425,0.383c1.199,0.654,1.784,2.022,1.934,3.324
				c0.187,1.519,0.215,3.189-0.632,4.531c-0.691,1.116-2.004,1.69-3.278,1.755c-0.611,0.007-1.237,0.05-1.83-0.134
				c-1.216-0.303-2.213-1.232-2.737-2.355c-0.678-1.454-0.764-3.206-0.111-4.686c0.563-1.32,1.715-2.434,3.135-2.76L342.203,246.445
				 M342.207,249.245c-0.387,0.088-0.779,0.279-0.969,0.646c-0.332,1.152,0.449,2.456,1.622,2.7
				c0.685,0.201,1.548,0.195,2.048-0.388c0.473-0.48,0.433-1.215,0.35-1.832c-0.083-0.305-0.126-0.711-0.453-0.858
				C343.993,249.163,343.073,249.091,342.207,249.245z"/>
		</g>
		<g>
			<path fill="#FFDC00" d="M358.262,246.426c2.077-0.005,4.161-0.03,6.231,0.146c0.891,0.313,1.035,1.614,0.409,2.252
				c-0.477,0.638-1.348,0.583-2.056,0.602c-0.025,2.046-0.105,4.092-0.262,6.131c0.001,0.591-0.657,0.843-1.152,0.874
				c-0.537,0.004-1.119,0.101-1.601-0.194c-0.4-0.684-0.308-1.499-0.315-2.256c0.017-1.519,0.045-3.038,0.118-4.555
				c-0.765-0.078-1.536,0.028-2.297-0.088c-0.313-0.454-0.22-1.025-0.225-1.544c0.018-0.399-0.034-0.836,0.199-1.186
				C357.583,246.399,357.942,246.441,358.262,246.426z"/>
		</g>
		<g>
			<path fill="#FFDC00" d="M376.993,246.667c1.085-0.483,2.365-0.517,3.468-0.074c0.494,0.226,0.945,0.604,1.162,1.112
				c0.118,0.351,0.124,0.894-0.313,1.015c-0.892,0.246-1.869,0.058-2.738,0.406c-0.432,0.143-0.531,0.765-0.166,1.035
				c0.582,0.48,1.345,0.662,1.957,1.1c0.823,0.521,1.302,1.476,1.306,2.441c0.071,0.892-0.458,1.765-1.22,2.206
				c-0.659,0.388-1.423,0.544-2.175,0.624c-0.906,0.058-1.785-0.265-2.58-0.663c-0.469-0.234-0.921-0.673-0.887-1.236
				c0.084-0.562,0.267-1.174,0.762-1.508c0.401-0.128,0.75,0.161,1.123,0.249c0.473,0.161,0.977,0.13,1.468,0.116
				c0.398-0.122,0.781-0.528,0.537-0.961c-0.412-0.542-1.116-0.703-1.694-1.007c-0.75-0.33-1.555-0.844-1.751-1.698
				c-0.148-0.462-0.026-0.945,0.078-1.402C375.615,247.637,376.237,247.006,376.993,246.667z"/>
		</g>
		<g>
			<path fill="#FFDC00" d="M367.227,246.463c0.574-0.096,1.201-0.084,1.727,0.192c0.434,0.257,0.455,0.808,0.522,1.253
				c0.109,1.711-0.462,3.441-0.024,5.134c0.176,0.602,0.904,0.609,1.391,0.434c0.6-0.349,0.666-1.096,0.739-1.716
				c0.033-1.15-0.02-2.303,0.017-3.455c0.059-0.671,0.354-1.402,0.974-1.738c0.541-0.29,1.343-0.192,1.653,0.384
				c0.204,0.886,0,1.792-0.004,2.688c-0.24,1.678,0.18,3.43-0.4,5.059c-0.341,0.964-1.276,1.627-2.276,1.743
				c-1.436,0.251-3.113,0.05-4.16-1.062c-1.293-1.229-1.734-3.095-1.648-4.826c0.07-1.127,0.03-2.313,0.509-3.362
				C366.414,246.784,366.799,246.525,367.227,246.463z"/>
		</g>
	</g>
	<g>
		<g>
			<path fill="#FFFFFF" d="M341.782,293.405l-0.576,3.192c-0.089,0.576-0.466,0.73-0.798,0.73h-2.505l1.042-5.852
				c-1.064-0.488-2.128-0.798-2.993-0.798c-0.819,0-1.485,0.221-1.928,0.753c-0.311,0.377-0.466,0.843-0.466,1.397
				c0,1.662,1.308,3.97,3.546,5.853c1.995,1.663,4.19,2.594,5.787,2.594c0.798,0,1.44-0.244,1.862-0.731
				c0.332-0.377,0.465-0.865,0.465-1.419C345.218,297.505,343.91,295.245,341.782,293.405"/>
		</g>
		<g>
			<path fill="#27B4E9" d="M362.652,295.333c0-1.153-3.968-0.333-3.968-2.705c0-2.173,2.35-2.749,3.88-2.749
				c1.552,0,3.415,0.354,3.237,2.283h-2.593c0.021-0.288-0.067-0.709-0.887-0.709c-0.444,0-0.776,0.198-0.776,0.487
				c0,1.043,4.102,0.444,4.102,2.726c0,1.863-1.708,2.884-4.28,2.884c-1.773,0-3.524-0.51-3.346-2.462h2.748
				c-0.044,0.311,0.023,0.889,0.932,0.889C362.187,295.977,362.652,295.753,362.652,295.333 M376.242,291.564l0.246-1.485h-2.572
				l-1.309,7.25h2.172c0.334,0,0.688-0.156,0.798-0.731l0.333-1.753c0.31-1.595,0.976-2.127,2.085-2.127
				c0.244,0,0.509,0.043,0.688,0.088l0.51-2.882c-0.111-0.022-0.288-0.044-0.443-0.044c-1.043,0-1.819,0.532-2.46,1.684H376.242z
				 M370.123,294.38l0.399-2.218h1.442l0.377-2.084h-1.442l0.399-2.24h-2.084c-0.331,0-0.708,0.155-0.797,0.732l-0.266,1.508h-1.087
				l-0.376,2.084h1.087l-0.465,2.617c-0.089,0.532-0.156,0.952-0.156,1.307c0,1.176,0.974,1.464,3.879,1.265l0.356-2.062h-0.533
				C370.058,295.289,370.012,295.045,370.123,294.38 M358.219,287.351h-2.173c-0.331,0-0.708,0.156-0.798,0.732l-1.661,9.245h2.172
				c0.333,0,0.709-0.156,0.799-0.731L358.219,287.351z M337.259,287.219c-0.399,0-0.732,0.267-0.821,0.688l-0.354,1.928h3.165
				l-1.358,7.493h2.517c0.335,0,0.714-0.156,0.827-0.731l1.151-6.762h2.277c0.401,0,0.732-0.266,0.82-0.687l0.356-1.929H337.259z
				 M347.776,292.894h2.617c0.133-0.665-0.376-1.265-1.042-1.265C348.487,291.629,347.91,292.096,347.776,292.894 M347.51,294.38
				c-0.133,0.841,0.444,1.418,1.198,1.418c0.465,0,0.909-0.199,1.175-0.643h2.772c-0.798,1.795-2.683,2.395-4.39,2.395
				c-2.061,0-3.591-1.042-3.591-3.083c0-2.904,2.483-4.588,4.855-4.588c2.327,0,3.612,1.374,3.612,3.436
				c0,0.334-0.044,0.688-0.111,1.065H347.51z M384.622,293.182c0-0.598-0.31-1.086-0.999-1.086c-0.952,0-1.574,0.997-1.574,2.305
				c0,0.599,0.199,1.087,0.887,1.087C383.979,295.488,384.622,294.491,384.622,293.182 M388.036,290.078l-1.286,7.25h-2.593
				l0.176-0.953h-0.044c-0.753,0.842-1.574,1.176-2.461,1.176c-1.773,0-2.682-1.198-2.682-2.884c0-2.525,1.684-4.787,3.88-4.787
				c0.908,0,1.574,0.288,1.952,0.999h0.043c0.09-0.599,0.466-0.8,0.843-0.8H388.036z"/>
		</g>
	</g>
	<g>
		<g>
			<path fill="#E84F17" d="M306.145,258.399h-1.105c-0.829,0-1.5-0.672-1.5-1.5s0.671-1.5,1.5-1.5h1.105
				c7.34,0,13.312-5.972,13.312-13.312v-83.371c0-0.829,0.671-1.5,1.5-1.5s1.5,0.671,1.5,1.5v83.371
				C322.457,251.082,315.14,258.399,306.145,258.399z"/>
		</g>
		<g>
			<path fill="#E84F17" d="M311.053,300.924h-6.014c-0.829,0-1.5-0.672-1.5-1.5s0.671-1.5,1.5-1.5h6.014
				c7.34,0,13.312-5.972,13.312-13.312V158.716c0-0.829,0.671-1.5,1.5-1.5s1.5,0.671,1.5,1.5v125.896
				C327.365,293.606,320.048,300.924,311.053,300.924z"/>
		</g>
		<g>
			<path fill="#28A2ED" d="M424.03,187.789h-83.44c-6.24,0-11.316-5.077-11.316-11.316v-17.756c0-0.829,0.671-1.5,1.5-1.5
				s1.5,0.671,1.5,1.5v17.756c0,4.585,3.731,8.316,8.316,8.316h83.44c9.998,0,18.132-8.135,18.132-18.133v-8.752
				c0-0.829,0.672-1.5,1.5-1.5s1.5,0.671,1.5,1.5v8.752C445.162,178.308,435.683,187.789,424.03,187.789z"/>
		</g>
		<g>
			<path fill="#28A2ED" d="M424.03,187.061h-78.519c-6.24,0-11.316-5.077-11.316-11.316v-17.028c0-0.829,0.671-1.5,1.5-1.5
				s1.5,0.671,1.5,1.5v17.028c0,4.585,3.731,8.316,8.316,8.316h78.519c9.598,0,17.405-7.808,17.405-17.406v-8.752
				c0-0.829,0.672-1.5,1.5-1.5s1.5,0.671,1.5,1.5v8.752C444.436,177.907,435.282,187.061,424.03,187.061z"/>
		</g>
		<g>
			<path fill="#28A2ED" d="M424.03,186.334h-73.624c-6.24,0-11.316-5.077-11.316-11.316v-16.301c0-0.829,0.671-1.5,1.5-1.5
				s1.5,0.671,1.5,1.5v16.301c0,4.585,3.731,8.316,8.316,8.316h73.624c9.196,0,16.678-7.482,16.678-16.679v-8.752
				c0-0.829,0.672-1.5,1.5-1.5s1.5,0.671,1.5,1.5v8.752C443.708,177.506,434.881,186.334,424.03,186.334z"/>
		</g>
		<g>
			<path fill="#28A2ED" d="M424.03,185.607h-68.716c-6.24,0-11.316-5.077-11.316-11.316v-15.574c0-0.829,0.671-1.5,1.5-1.5
				s1.5,0.671,1.5,1.5v15.574c0,4.585,3.731,8.316,8.316,8.316h68.716c8.796,0,15.951-7.156,15.951-15.952v-8.752
				c0-0.829,0.672-1.5,1.5-1.5s1.5,0.671,1.5,1.5v8.752C442.981,177.105,434.48,185.607,424.03,185.607z"/>
		</g>
		<g>
			<path fill="#28A2ED" d="M424.03,184.88h-62.172c-6.24,0-11.316-5.077-11.316-11.316v-14.847c0-0.829,0.672-1.5,1.5-1.5
				s1.5,0.671,1.5,1.5v14.847c0,4.585,3.73,8.316,8.316,8.316h62.172c8.395,0,15.224-6.83,15.224-15.225v-8.752
				c0-0.829,0.672-1.5,1.5-1.5s1.5,0.671,1.5,1.5v8.752C442.254,176.705,434.079,184.88,424.03,184.88z"/>
		</g>
		<g>
			<path fill="#28A2ED" d="M424.03,184.153h-57.264c-6.24,0-11.316-5.077-11.316-11.316v-14.12c0-0.829,0.672-1.5,1.5-1.5
				s1.5,0.671,1.5,1.5v14.12c0,4.585,3.73,8.316,8.316,8.316h57.264c7.994,0,14.497-6.503,14.497-14.498v-8.752
				c0-0.829,0.672-1.5,1.5-1.5s1.5,0.671,1.5,1.5v8.752C441.527,176.303,433.678,184.153,424.03,184.153z"/>
		</g>
		<g>
			<path fill="#28A2ED" d="M424.03,183.425h-52.355c-6.24,0-11.316-5.077-11.316-11.316v-13.393c0-0.829,0.672-1.5,1.5-1.5
				s1.5,0.671,1.5,1.5v13.393c0,4.585,3.73,8.316,8.316,8.316h52.355c7.593,0,13.77-6.177,13.77-13.77v-8.752
				c0-0.829,0.672-1.5,1.5-1.5s1.5,0.671,1.5,1.5v8.752C440.8,175.902,433.277,183.425,424.03,183.425z"/>
		</g>
		<g>
			<path fill="#28A2ED" d="M424.03,182.698h-47.447c-6.24,0-11.316-5.077-11.316-11.316v-12.666c0-0.829,0.672-1.5,1.5-1.5
				s1.5,0.671,1.5,1.5v12.666c0,4.585,3.73,8.316,8.316,8.316h47.447c7.191,0,13.042-5.851,13.042-13.043v-8.752
				c0-0.829,0.672-1.5,1.5-1.5s1.5,0.671,1.5,1.5v8.752C440.072,175.501,432.876,182.698,424.03,182.698z"/>
		</g>
		<g>
			<path fill="#28A2ED" d="M424.212,181.971h-42.721c-6.24,0-11.316-5.077-11.316-11.316v-11.938c0-0.829,0.672-1.5,1.5-1.5
				s1.5,0.671,1.5,1.5v11.938c0,4.585,3.73,8.316,8.316,8.316h42.721c6.791,0,12.315-5.525,12.315-12.316v-8.752
				c0-0.829,0.672-1.5,1.5-1.5s1.5,0.671,1.5,1.5v8.752C439.527,175.101,432.657,181.971,424.212,181.971z"/>
		</g>
		<g>
			<path fill="#28A2ED" d="M424.03,181.244h-37.631c-6.24,0-11.316-5.077-11.316-11.316v-11.211c0-0.829,0.672-1.5,1.5-1.5
				s1.5,0.671,1.5,1.5v11.211c0,4.585,3.73,8.316,8.316,8.316h37.631c6.39,0,11.588-5.199,11.588-11.589v-8.752
				c0-0.829,0.672-1.5,1.5-1.5s1.5,0.671,1.5,1.5v8.752C438.618,174.7,432.074,181.244,424.03,181.244z"/>
		</g>
	</g>
	<g>
		<rect x="432.21" y="55.649" fill="#CAD6DD" width="16.361" height="111.253"/>
	</g>
	<g opacity="0.5">
		<rect x="432.21" y="55.649" fill="#A6B3BD" width="16.361" height="42.375"/>
	</g>
	<g>
		<g>
			<path fill="#525D65" d="M77.202,415.584H60.841c-7.217,0-13.088-5.872-13.088-13.089v-29.449c0-7.217,5.871-13.089,13.088-13.089
				h16.361c7.217,0,13.088,5.872,13.088,13.089v29.449C90.291,409.712,84.419,415.584,77.202,415.584z M60.841,366.502
				c-3.608,0-6.544,2.936-6.544,6.544v29.449c0,3.608,2.936,6.544,6.544,6.544h16.361c3.608,0,6.544-2.936,6.544-6.544v-29.449
				c0-3.608-2.936-6.544-6.544-6.544H60.841z"/>
		</g>
		<g>
			<rect x="34.664" y="389.407" fill="#FF8A23" width="29.449" height="39.266"/>
		</g>
		<g>
			<rect x="54.297" y="389.407" fill="#FF6000" width="49.082" height="39.266"/>
		</g>
		<g>
			<rect x="28.12" y="379.59" fill="#FFFFFF" width="58.898" height="13.089"/>
		</g>
		<g>
			<rect x="51.025" y="379.59" fill="#CAD6DD" width="58.898" height="13.089"/>
		</g>
		<g>
			<g>
				<g>
					<g>
						<path fill="none" stroke="#002F62" stroke-width="1.9265" stroke-linejoin="round" stroke-miterlimit="10" d="M41.436,407.698
							l-0.307,6.159l-1.871-4.873l-2.592,1.358l1.789,11.21l2.322-1.15l-0.808-4.644l1.476,3.658l0.826-0.343l0.299-5.159
							l0.878,5.844l2.354-1.219l-1.544-12.224L41.436,407.698z M50.463,411.828c1.695-3.015,0.337-7.128-1.881-7.072
							c-2.207,0.056-3.832,2.196-3.832,2.196l1.742,11.129l2.14-0.909l-0.501-3.601l0.637-0.29l1.352,3.241l2.075-1.668
							L50.463,411.828z M47.757,410.996l-0.411-2.954c0,0,1.183-0.925,1.527,0.754C49.173,410.259,48.236,411.033,47.757,410.996z"
							/>
					</g>
				</g>
				<g>
					<g>
						<path fill="#FF6000" d="M41.436,407.698l-0.307,6.159l-1.871-4.873l-2.592,1.358l1.789,11.21l2.322-1.15l-0.808-4.644
							l1.476,3.658l0.826-0.343l0.299-5.159l0.878,5.844l2.354-1.219l-1.544-12.224L41.436,407.698z M50.463,411.828
							c1.695-3.015,0.337-7.128-1.881-7.072c-2.207,0.056-3.832,2.196-3.832,2.196l1.742,11.129l2.14-0.909l-0.501-3.601l0.637-0.29
							l1.352,3.241l2.075-1.668L50.463,411.828z M47.757,410.996l-0.411-2.954c0,0,1.183-0.925,1.527,0.754
							C49.173,410.259,48.236,411.033,47.757,410.996z"/>
					</g>
				</g>
				<g>
					<g>
						
							<path fill="none" stroke="#002F62" stroke-width="0.1376" stroke-linecap="round" stroke-linejoin="round" stroke-miterlimit="10" d="
							M41.436,407.698l-0.307,6.159l-1.871-4.873l-2.592,1.358l1.789,11.21l2.322-1.15l-0.808-4.644l1.476,3.658l0.826-0.343
							l0.299-5.159l0.878,5.844l2.354-1.219l-1.544-12.224L41.436,407.698z M50.463,411.828c1.695-3.015,0.337-7.128-1.881-7.072
							c-2.207,0.056-3.832,2.196-3.832,2.196l1.742,11.129l2.14-0.909l-0.501-3.601l0.637-0.29l1.352,3.241l2.075-1.668
							L50.463,411.828z M47.757,410.996l-0.411-2.954c0,0,1.183-0.925,1.527,0.754C49.173,410.259,48.236,411.033,47.757,410.996z"
							/>
					</g>
				</g>
			</g>
			<g>
				<g>
					<g>
						<path fill="none" stroke="#002F62" stroke-width="2.4007" stroke-linejoin="round" stroke-miterlimit="10" d="M56.658,410.07
							l2.424-0.083l0.018,7.698l3.605-0.045l0.526-7.872l2.48-0.121l0.04-3.505l-8.938,0.003L56.658,410.07z M66.322,417.917
							l7.12-0.226l0.015-3.576h-3.411l0.052-1.133l2.553-0.046l0.073-2.511l-2.402-0.024l0.066-1.202l3.41-0.118l0.156-3.008
							l-7.481-0.011L66.322,417.917z M78.768,405.966l-4.352,0.053l-0.071,11.35l6.75-0.48l0.17-3.768l-3.118-0.033L78.768,405.966z
							 M82.283,409.2c-1.649,3.02-0.794,6.656,1.905,8.132c1.701,0.929,3.732,0.772,5.415-0.23l0.063-4.051
							c-0.198,0.19-0.425,0.355-0.685,0.491c-1.234,0.656-2.642,0.417-3.15-0.541c-0.512-0.953,0.074-2.258,1.309-2.914
							c0.92-0.491,1.944-0.479,2.613-0.033l0.167-3.765C87.256,405.004,83.88,406.271,82.283,409.2z M95.301,406.611
							c-2.923,0-5.294,2.482-5.294,5.539c0,3.061,2.37,5.539,5.294,5.539c2.923,0,5.294-2.478,5.294-5.539
							C100.594,409.093,98.224,406.611,95.301,406.611z M95.301,413.938c-0.868,0-1.575-0.767-1.575-1.714
							c0-0.947,0.707-1.718,1.575-1.718c0.872,0,1.579,0.771,1.579,1.718C96.88,413.171,96.173,413.938,95.301,413.938z"/>
					</g>
				</g>
				<g>
					<g>
						<path fill="#FFFFFF" d="M56.658,410.07l2.424-0.083l0.018,7.698l3.605-0.045l0.526-7.872l2.48-0.121l0.04-3.505l-8.938,0.003
							L56.658,410.07z M66.322,417.917l7.12-0.226l0.015-3.576h-3.411l0.052-1.133l2.553-0.046l0.073-2.511l-2.402-0.024
							l0.066-1.202l3.41-0.118l0.156-3.008l-7.481-0.011L66.322,417.917z M78.768,405.966l-4.352,0.053l-0.071,11.35l6.75-0.48
							l0.17-3.768l-3.118-0.033L78.768,405.966z M82.283,409.2c-1.649,3.02-0.794,6.656,1.905,8.132
							c1.701,0.929,3.732,0.772,5.415-0.23l0.063-4.051c-0.198,0.19-0.425,0.355-0.685,0.491c-1.234,0.656-2.642,0.417-3.15-0.541
							c-0.512-0.953,0.074-2.258,1.309-2.914c0.92-0.491,1.944-0.479,2.613-0.033l0.167-3.765
							C87.256,405.004,83.88,406.271,82.283,409.2z M95.301,406.611c-2.923,0-5.294,2.482-5.294,5.539
							c0,3.061,2.37,5.539,5.294,5.539c2.923,0,5.294-2.478,5.294-5.539C100.594,409.093,98.224,406.611,95.301,406.611z
							 M95.301,413.938c-0.868,0-1.575-0.767-1.575-1.714c0-0.947,0.707-1.718,1.575-1.718c0.872,0,1.579,0.771,1.579,1.718
							C96.88,413.171,96.173,413.938,95.301,413.938z"/>
					</g>
				</g>
				<g>
					<g>
						
							<path fill="none" stroke="#002F62" stroke-width="0.1715" stroke-linecap="round" stroke-linejoin="round" stroke-miterlimit="10" d="
							M56.658,410.07l2.424-0.083l0.018,7.698l3.605-0.045l0.526-7.872l2.48-0.121l0.04-3.505l-8.938,0.003L56.658,410.07z
							 M66.322,417.917l7.12-0.226l0.015-3.576h-3.411l0.052-1.133l2.553-0.046l0.073-2.511l-2.402-0.024l0.066-1.202l3.41-0.118
							l0.156-3.008l-7.481-0.011L66.322,417.917z M78.768,405.966l-4.352,0.053l-0.071,11.35l6.75-0.48l0.17-3.768l-3.118-0.033
							L78.768,405.966z M82.283,409.2c-1.649,3.02-0.794,6.656,1.905,8.132c1.701,0.929,3.732,0.772,5.415-0.23l0.063-4.051
							c-0.198,0.19-0.425,0.355-0.685,0.491c-1.234,0.656-2.642,0.417-3.15-0.541c-0.512-0.953,0.074-2.258,1.309-2.914
							c0.92-0.491,1.944-0.479,2.613-0.033l0.167-3.765C87.256,405.004,83.88,406.271,82.283,409.2z M95.301,406.611
							c-2.923,0-5.294,2.482-5.294,5.539c0,3.061,2.37,5.539,5.294,5.539c2.923,0,5.294-2.478,5.294-5.539
							C100.594,409.093,98.224,406.611,95.301,406.611z M95.301,413.938c-0.868,0-1.575-0.767-1.575-1.714
							c0-0.947,0.707-1.718,1.575-1.718c0.872,0,1.579,0.771,1.579,1.718C96.88,413.171,96.173,413.938,95.301,413.938z"/>
					</g>
				</g>
			</g>
		</g>
	</g>
	<g>
		<path fill="#E1EAEF" d="M437.118,166.901c-0.903,0-1.636-0.732-1.636-1.636v-62.334c0-0.904,0.732-1.636,1.636-1.636
			s1.636,0.732,1.636,1.636v62.334C438.754,166.169,438.021,166.901,437.118,166.901z"/>
	</g>
	<g>
		<g>
			<g>
				<g opacity="0.5">
					<g>
						<circle fill="#E1EAEF" cx="514.032" cy="245.464" r="48.135"/>
					</g>
				</g>
				<g>
					<g>
						<circle fill="#FFFFFF" cx="519.333" cy="240.163" r="48.135"/>
					</g>
				</g>
			</g>
		</g>
		<g>
			<path fill="#3AC03D" d="M542.545,233.03c-0.813,0-1.473-0.659-1.473-1.473c0-5.045-4.104-9.15-9.149-9.15
				c-0.813,0-1.473-0.66-1.473-1.473s0.659-1.473,1.473-1.473c6.669,0,12.095,5.426,12.095,12.095
				C544.018,232.371,543.358,233.03,542.545,233.03z"/>
		</g>
		<g>
			<path fill="#3AC03D" d="M549.627,233.03c-0.813,0-1.473-0.659-1.473-1.473c0-8.95-7.281-16.231-16.231-16.231
				c-0.813,0-1.473-0.66-1.473-1.473s0.659-1.473,1.473-1.473c10.574,0,19.177,8.603,19.177,19.177
				C551.1,232.371,550.44,233.03,549.627,233.03z"/>
		</g>
		<g>
			<path fill="#3AC03D" d="M556.709,233.03c-0.813,0-1.473-0.659-1.473-1.473c0-12.855-10.458-23.313-23.313-23.313
				c-0.813,0-1.473-0.66-1.473-1.473s0.659-1.473,1.473-1.473c14.479,0,26.259,11.779,26.259,26.258
				C558.182,232.371,557.522,233.03,556.709,233.03z"/>
		</g>
		<g>
			<g>
				<path fill="#CAD6DD" d="M519.769,255.62c-0.375,0-0.755-0.096-1.103-0.296c-1.057-0.61-1.418-1.961-0.809-3.018l13.252-22.953
					c0.61-1.056,1.963-1.419,3.018-0.808c1.057,0.61,1.418,1.96,0.809,3.017l-13.252,22.953
					C521.274,255.224,520.532,255.62,519.769,255.62z"/>
			</g>
			<g>
				<path fill="#CAD6DD" d="M502.103,255.62c-0.764,0-1.506-0.396-1.915-1.104l-13.252-22.953c-0.609-1.057-0.248-2.407,0.809-3.017
					c1.056-0.611,2.407-0.248,3.018,0.808l13.252,22.953c0.609,1.057,0.248,2.407-0.809,3.018
					C502.857,255.524,502.478,255.62,502.103,255.62z"/>
			</g>
			<g>
				<path fill="#A6B3BD" d="M533.023,260.773h-44.174c-1.626,0-2.945-1.318-2.945-2.945v-5.89h50.064v5.89
					C535.968,259.455,534.649,260.773,533.023,260.773z"/>
			</g>
			<g>
				<path fill="#E1EAEF" d="M535.968,248.994v5.208c0,2.003-1.624,3.627-3.627,3.627h-42.81c-2.003,0-3.627-1.624-3.627-3.627
					v-5.208c0-1.075,0.294-2.076,0.795-2.945c1.016-1.767,2.915-2.945,5.095-2.945h38.284c2.179,0,4.079,1.178,5.095,2.945
					C535.673,246.918,535.968,247.919,535.968,248.994z"/>
			</g>
			<g>
				<path fill="#FFFFFF" d="M532.122,246.049h-42.373c-1.324,0-2.397,1.073-2.397,2.397v6.985c0,1.324,1.073,2.397,2.397,2.397
					h42.373c1.324,0,2.397-1.073,2.397-2.397v-6.985C534.519,247.122,533.446,246.049,532.122,246.049z"/>
			</g>
			<g>
				<path fill="#3AC03D" d="M497.725,253.411h-3.791c-0.813,0-1.473-0.659-1.473-1.472l0,0c0-0.813,0.659-1.473,1.473-1.473h3.791
					c0.813,0,1.473,0.659,1.473,1.473l0,0C499.198,252.752,498.539,253.411,497.725,253.411z"/>
			</g>
			<g>
				<path fill="#3AC03D" d="M508.019,253.411h-3.791c-0.813,0-1.472-0.659-1.472-1.472l0,0c0-0.813,0.659-1.473,1.472-1.473h3.791
					c0.813,0,1.473,0.659,1.473,1.473l0,0C509.491,252.752,508.832,253.411,508.019,253.411z"/>
			</g>
			<g>
				<path fill="#3AC03D" d="M518.312,253.411h-3.791c-0.813,0-1.472-0.659-1.472-1.472l0,0c0-0.813,0.659-1.473,1.472-1.473h3.791
					c0.813,0,1.472,0.659,1.472,1.473l0,0C519.784,252.752,519.125,253.411,518.312,253.411z"/>
			</g>
			<g>
				<path fill="#3AC03D" d="M528.605,253.411h-3.792c-0.813,0-1.472-0.659-1.472-1.472l0,0c0-0.813,0.659-1.473,1.472-1.473h3.792
					c0.813,0,1.472,0.659,1.472,1.473l0,0C530.078,252.752,529.418,253.411,528.605,253.411z"/>
			</g>
		</g>
	</g>
	<g>
		<g>
			<g>
				<g opacity="0.5">
					<g>
						<circle fill="#E1EAEF" cx="613.574" cy="304.233" r="48.135"/>
					</g>
				</g>
				<g>
					<g>
						<circle fill="#FFFFFF" cx="618.875" cy="298.932" r="48.135"/>
					</g>
				</g>
			</g>
		</g>
		<g>
			<g>
				<circle fill="#28A2ED" cx="618.876" cy="298.928" r="30.344"/>
			</g>
			<g>
				<circle fill="#00C0F0" cx="616.067" cy="296.12" r="26.523"/>
			</g>
			<g opacity="0.5">
				<path fill="#FFFFFF" d="M600.299,284.954c-0.471,0-0.943-0.161-1.33-0.49c-0.861-0.735-0.964-2.029-0.229-2.892
					c1.822-2.136,3.981-3.921,6.417-5.306c0.984-0.562,2.235-0.216,2.796,0.769c0.56,0.984,0.216,2.236-0.769,2.796
					c-2.021,1.149-3.812,2.63-5.323,4.403C601.454,284.709,600.878,284.954,600.299,284.954z"/>
			</g>
			<g opacity="0.5">
				<path fill="#FFFFFF" d="M596.936,290.295c-0.277,0-0.56-0.057-0.829-0.176c-1.035-0.459-1.503-1.67-1.045-2.705
					c0.124-0.279,0.254-0.557,0.388-0.831c0.497-1.019,1.725-1.441,2.742-0.943c1.018,0.497,1.44,1.725,0.943,2.742
					c-0.112,0.229-0.221,0.46-0.323,0.692C598.473,289.84,597.722,290.295,596.936,290.295z"/>
			</g>
			<g>
				<path fill="#FFFFFF" d="M631.641,331.248l-0.438-0.17c-14.075-5.444-23.532-19.247-23.532-34.348
					c0-13.033,6.669-24.838,17.841-31.576l0.401-0.242l0.458,0.101c15.699,3.429,26.894,17.067,27.225,33.166
					c0.015,0.209,0.016,0.485,0.016,0.746c0,14.145-8.453,26.762-21.535,32.145L631.641,331.248z M626.326,267.418
					c-10.216,6.347-16.301,17.269-16.301,29.312c0,13.978,8.655,26.767,21.588,31.978c11.948-5.115,19.642-16.754,19.642-29.783
					c0-0.21,0.001-0.433-0.014-0.644C650.935,283.38,640.715,270.777,626.326,267.418z"/>
			</g>
			<g>
				<path fill="#FFFFFF" d="M618.875,333.675c-7.346,0-14.372-2.271-20.318-6.569c-9.027-6.522-14.417-17.058-14.417-28.181
					c0-5.649,1.386-11.252,4.009-16.204c1.655-3.125,3.742-5.95,6.205-8.397l0.192-0.191l0.257-0.088
					c3.757-1.282,7.714-1.933,11.763-1.933c20.314,0,36.841,16.526,36.841,36.841c0,6.554-1.736,12.977-5.021,18.574l-0.138,0.235
					l-0.227,0.15c-1.884,1.251-3.885,2.313-5.947,3.157C627.876,332.798,623.435,333.675,618.875,333.675z M595.822,276.188
					c-2.211,2.234-4.091,4.803-5.592,7.637c-2.443,4.612-3.735,9.834-3.735,15.101c0,10.369,5.025,20.19,13.441,26.271
					c5.543,4.007,12.091,6.124,18.938,6.124c4.25,0,8.39-0.817,12.304-2.429c1.838-0.753,3.623-1.69,5.312-2.792
					c2.984-5.181,4.561-11.104,4.561-17.146c0-19.016-15.47-34.485-34.485-34.485C602.869,274.467,599.256,275.046,595.822,276.188z
					"/>
			</g>
			<g>
				<path fill="#FFFFFF" d="M624.19,313.237c-17.581,0-32.787-12.507-36.157-29.738l-0.08-0.408l0.194-0.368
					c6.033-11.432,17.808-18.533,30.728-18.533c18.752,0,34.327,15.247,34.72,33.989l0.009,0.416l-0.255,0.33
					C646.305,308.021,635.677,313.237,624.19,313.237z M590.428,283.455c3.313,15.917,17.445,27.427,33.763,27.427
					c10.613,0,20.443-4.759,27.037-13.071c-0.587-17.277-15.013-31.266-32.353-31.266
					C606.97,266.545,596.108,273.014,590.428,283.455z"/>
			</g>
			<g>
				<path fill="#FFFFFF" d="M618.875,333.675c-7.346,0-14.372-2.271-20.318-6.569l-0.306-0.222l-0.12-0.358
					c-1.263-3.753-1.902-7.685-1.902-11.684c0-20.314,16.526-36.841,36.841-36.841c5.454,0,10.695,1.162,15.579,3.454l0.341,0.16
					l0.185,0.328c2.774,4.926,4.304,10.54,4.421,16.235c0.015,0.208,0.016,0.485,0.016,0.746c0,14.145-8.453,26.762-21.535,32.145
					C627.876,332.798,623.435,333.675,618.875,333.675z M600.245,325.416c5.476,3.863,11.909,5.903,18.63,5.903
					c4.25,0,8.39-0.817,12.304-2.429c12.195-5.018,20.076-16.779,20.076-29.966c0-0.21,0.001-0.433-0.014-0.644
					c-0.108-5.234-1.468-10.343-3.938-14.852c-4.47-2.039-9.257-3.073-14.234-3.073c-19.016,0-34.485,15.47-34.485,34.485
					C598.584,318.458,599.143,322.013,600.245,325.416z"/>
			</g>
			<g>
				<circle fill="#FFFFFF" cx="611.267" cy="309.638" r="3.85"/>
			</g>
			<g>
				<circle fill="#FFFFFF" cx="599.683" cy="302.3" r="3.85"/>
			</g>
			<g>
				<circle fill="#FFFFFF" cx="610.02" cy="287.641" r="3.85"/>
			</g>
			<g>
				<circle fill="#FFFFFF" cx="616.475" cy="274.693" r="3.85"/>
			</g>
			<g>
				<circle fill="#FFFFFF" cx="626.968" cy="279.708" r="3.85"/>
			</g>
			<g>
				<circle fill="#FFFFFF" cx="642.182" cy="307.196" r="3.85"/>
			</g>
		</g>
	</g>
	<g>
		<g>
			<g>
				<g opacity="0.5">
					<g>
						<circle fill="#E1EAEF" cx="514.032" cy="363.002" r="48.135"/>
					</g>
				</g>
				<g>
					<g>
						<circle fill="#FFFFFF" cx="519.333" cy="357.702" r="48.135"/>
					</g>
				</g>
			</g>
		</g>
		<g>
			<g>
				<path fill="#222B32" d="M553.936,365.064H484.73c-0.813,0-1.472-0.659-1.472-1.473v-8.835c0-0.813,0.659-1.472,1.472-1.472
					h69.206c0.813,0,1.472,0.659,1.472,1.472v8.835C555.409,364.405,554.749,365.064,553.936,365.064z"/>
			</g>
			<g>
				<path fill="#525D65" d="M553.847,363.591H484.82c-0.863,0-1.562-0.699-1.562-1.562v-10.129c0-0.863,0.699-1.562,1.562-1.562
					h69.027c0.863,0,1.562,0.699,1.562,1.562v10.129C555.409,362.892,554.709,363.591,553.847,363.591z"/>
			</g>
			<g>
				<path fill="#A6B3BD" d="M534.794,360.646h-45.646c-0.813,0-1.473-0.659-1.473-1.473v-2.945c0-0.813,0.659-1.473,1.473-1.473
					h45.646c0.813,0,1.472,0.659,1.472,1.473v2.945C536.267,359.987,535.607,360.646,534.794,360.646z"/>
			</g>
			<g>
				<rect x="530.377" y="356.229" fill="#A6B3BD" width="4.417" height="4.417"/>
			</g>
			<g>
				<rect x="524.487" y="356.229" fill="#A6B3BD" width="4.417" height="4.417"/>
			</g>
			<g>
				<rect x="518.597" y="356.229" fill="#A6B3BD" width="4.417" height="4.417"/>
			</g>
			<g>
				<rect x="512.707" y="356.229" fill="#A6B3BD" width="4.417" height="4.417"/>
			</g>
			<g>
				<rect x="506.817" y="356.229" fill="#A6B3BD" width="4.417" height="4.417"/>
			</g>
			<g>
				<rect x="500.927" y="356.229" fill="#A6B3BD" width="4.417" height="4.417"/>
			</g>
			<g>
				<rect x="495.038" y="356.229" fill="#A6B3BD" width="4.417" height="4.417"/>
			</g>
			<g>
				<rect x="489.148" y="356.229" fill="#A6B3BD" width="4.417" height="4.417"/>
			</g>
			<g>
				<path fill="#222B32" d="M531.849,360.646h1.473c0-0.813,0.659-1.473,1.472-1.473v-2.945h-4.417v2.945
					C531.19,359.174,531.849,359.833,531.849,360.646z"/>
			</g>
			<g>
				<path fill="#222B32" d="M525.959,360.646h1.472c0-0.813,0.659-1.473,1.473-1.473v-2.945h-4.417v2.945
					C525.3,359.174,525.959,359.833,525.959,360.646z"/>
			</g>
			<g>
				<path fill="#222B32" d="M520.069,360.646h1.473c0-0.813,0.659-1.473,1.472-1.473v-2.945h-4.417v2.945
					C519.41,359.174,520.069,359.833,520.069,360.646z"/>
			</g>
			<g>
				<path fill="#222B32" d="M514.18,360.646h1.472c0-0.813,0.659-1.473,1.472-1.473v-2.945h-4.417v2.945
					C513.52,359.174,514.18,359.833,514.18,360.646z"/>
			</g>
			<g>
				<path fill="#222B32" d="M508.29,360.646h1.473c0-0.813,0.659-1.473,1.473-1.473v-2.945h-4.417v2.945
					C507.631,359.174,508.29,359.833,508.29,360.646z"/>
			</g>
			<g>
				<path fill="#222B32" d="M502.4,360.646h1.472c0-0.813,0.659-1.473,1.473-1.473v-2.945h-4.417v2.945
					C501.741,359.174,502.4,359.833,502.4,360.646z"/>
			</g>
			<g>
				<path fill="#222B32" d="M496.51,360.646h1.472c0-0.813,0.659-1.473,1.472-1.473v-2.945h-4.417v2.945
					C495.851,359.174,496.51,359.833,496.51,360.646z"/>
			</g>
			<g>
				<path fill="#222B32" d="M490.62,360.646h1.472c0-0.813,0.659-1.473,1.473-1.473v-2.945h-4.417v2.945
					C489.961,359.174,490.62,359.833,490.62,360.646z"/>
			</g>
			<g>
				<path fill="#222B32" d="M545.838,360.646h-1.472c-0.813,0-1.472-0.659-1.472-1.473v-2.945h4.417v2.945
					C547.31,359.987,546.651,360.646,545.838,360.646z"/>
			</g>
			<g>
				<path fill="#7C8B96" d="M547.31,356.229h-4.417l0,0c0-0.813,0.659-1.473,1.472-1.473h1.472
					C546.651,354.757,547.31,355.416,547.31,356.229L547.31,356.229z"/>
			</g>
		</g>
	</g>
	<g>
		<path fill="#525D65" d="M495.612,176.632l-0.783-0.352l3.103-6.917l0.783,0.352L495.612,176.632z"/>
		<path fill="#525D65" d="M498.917,177.996l-0.814-0.272l2.402-7.191l3.237,1.082c0.76,0.254,1.295,0.666,1.604,1.236
			c0.301,0.567,0.335,1.203,0.1,1.905c-0.237,0.71-0.647,1.198-1.232,1.466c-0.584,0.268-1.257,0.274-2.017,0.021l-2.423-0.81
			L498.917,177.996z M501.062,171.576l-1.035,3.096l2.368,0.792c0.565,0.188,1.038,0.194,1.42,0.015
			c0.382-0.178,0.652-0.508,0.813-0.99s0.143-0.908-0.055-1.28c-0.198-0.372-0.579-0.652-1.145-0.841L501.062,171.576z"/>
		<path fill="#525D65" d="M509.765,180.853l-0.852-0.113l0.991-7.516l3.384,0.446c0.795,0.105,1.397,0.408,1.81,0.909
			c0.403,0.5,0.557,1.117,0.46,1.851c-0.098,0.742-0.408,1.3-0.932,1.673c-0.522,0.374-1.182,0.509-1.977,0.404l-2.531-0.334
			L509.765,180.853z M510.649,174.142l-0.427,3.236l2.476,0.327c0.59,0.078,1.056-0.007,1.396-0.255
			c0.341-0.248,0.544-0.623,0.61-1.126s-0.032-0.919-0.298-1.247c-0.265-0.328-0.692-0.53-1.282-0.608L510.649,174.142z"/>
		<path fill="#525D65" d="M517.857,173.608l0.051,3.183c0.202-0.278,0.45-0.515,0.745-0.71c0.294-0.196,0.633-0.297,1.015-0.303
			c0.381-0.006,0.71,0.042,0.987,0.145c0.276,0.103,0.52,0.259,0.729,0.469c0.481,0.458,0.728,1.069,0.74,1.832l0.054,3.333
			l-0.858,0.014l-0.054-3.309c-0.009-0.527-0.164-0.944-0.467-1.252s-0.691-0.458-1.164-0.451c-0.481,0.008-0.888,0.175-1.218,0.5
			c-0.331,0.334-0.492,0.756-0.483,1.268l0.054,3.298l-0.859,0.014l-0.13-8.016L517.857,173.608z"/>
		<path fill="#525D65" d="M526.263,175.332c0.848-0.11,1.573,0.084,2.178,0.583c0.57,0.48,0.91,1.14,1.021,1.98
			c0.109,0.84-0.051,1.566-0.479,2.176c-0.456,0.637-1.107,1.01-1.955,1.121c-0.849,0.111-1.574-0.083-2.179-0.582
			c-0.57-0.48-0.91-1.14-1.02-1.981c-0.11-0.84,0.05-1.565,0.479-2.176C524.763,175.816,525.414,175.442,526.263,175.332z
			 M526.925,180.419c0.613-0.08,1.07-0.355,1.371-0.825c0.288-0.446,0.393-0.975,0.312-1.588c-0.079-0.613-0.316-1.098-0.709-1.456
			c-0.411-0.377-0.923-0.526-1.536-0.446c-0.613,0.08-1.07,0.355-1.371,0.825c-0.288,0.446-0.393,0.975-0.312,1.588
			s0.316,1.099,0.709,1.455C525.8,180.351,526.312,180.5,526.925,180.419z"/>
		<path fill="#525D65" d="M531.393,174.526l0.229,0.864c0.129-0.318,0.312-0.608,0.552-0.869s0.543-0.44,0.912-0.538
			c0.369-0.097,0.7-0.129,0.993-0.097c0.293,0.033,0.566,0.127,0.82,0.281c0.577,0.33,0.963,0.863,1.158,1.601l0.852,3.222
			l-0.83,0.22l-0.846-3.2c-0.135-0.509-0.387-0.877-0.754-1.104c-0.368-0.227-0.781-0.279-1.238-0.159
			c-0.466,0.123-0.819,0.382-1.062,0.778c-0.24,0.403-0.296,0.853-0.165,1.347l0.843,3.189l-0.83,0.219l-1.464-5.536
			L531.393,174.526z"/>
		<path fill="#525D65" d="M541.387,176.592c0.715-0.291,1.106-0.796,1.176-1.517l0.87-0.354c0.012,0.556-0.122,1.063-0.4,1.523
			s-0.732,0.817-1.362,1.073c-0.799,0.325-1.558,0.325-2.275-0.001c-0.698-0.317-1.205-0.866-1.521-1.644
			c-0.319-0.785-0.35-1.527-0.09-2.226c0.279-0.732,0.815-1.259,1.607-1.581s1.543-0.319,2.254,0.01
			c0.674,0.319,1.171,0.872,1.49,1.657l0.129,0.318l-4.444,1.808c0.255,0.465,0.613,0.789,1.075,0.972
			C540.366,176.818,540.863,176.805,541.387,176.592z M539.684,172.586c-0.488,0.199-0.836,0.518-1.045,0.957
			c-0.193,0.417-0.23,0.873-0.111,1.368l3.607-1.467c-0.261-0.438-0.605-0.739-1.035-0.902
			C540.644,172.374,540.172,172.388,539.684,172.586z"/>
	</g>
	<g>
		<path fill="#525D65" d="M508.43,298.167l-0.963-0.146l-1.199-7.849l0.895,0.135l0.973,6.587l2.968-5.991l0.975,0.147l1.063,6.601
			l2.877-6.005l0.895,0.136l-3.467,7.144l-0.962-0.146l-1.075-6.603L508.43,298.167z"/>
		<path fill="#525D65" d="M517.83,293.394l0.858,0.017l-0.112,5.725l-0.859-0.017L517.83,293.394z M518.765,291.327l-0.022,1.122
			l-0.928-0.019l0.022-1.122L518.765,291.327z"/>
		<path fill="#525D65" d="M520.316,295.346l2.86-0.123l0.036,0.835l-2.86,0.124L520.316,295.346z"/>
		<path fill="#525D65" d="M525.624,292.03l0.392,2.604l4.065-0.611l0.124,0.827l-4.065,0.611l0.488,3.25l-0.85,0.128l-1.127-7.497
			l5.414-0.814l0.122,0.815L525.624,292.03z"/>
		<path fill="#525D65" d="M531.876,289.781l0.265,1.091l-0.901,0.219L530.975,290L531.876,289.781z M531.499,292.018l0.835-0.202
			l1.349,5.564l-0.835,0.202L531.499,292.018z"/>
	</g>
	<g>
		<path fill="#525D65" d="M503.676,407.92c-0.174,0.083-0.305,0.191-0.393,0.326c-0.089,0.134-0.155,0.283-0.201,0.449
			c-0.046,0.165-0.017,0.338,0.089,0.518c0.104,0.18,0.262,0.35,0.471,0.51c0.21,0.161,0.455,0.319,0.736,0.477
			c0.281,0.156,0.568,0.316,0.859,0.48c0.292,0.163,0.574,0.336,0.849,0.519s0.509,0.384,0.701,0.604
			c0.432,0.475,0.568,1,0.41,1.574c-0.189,0.685-0.589,1.137-1.2,1.355c-0.61,0.22-1.369,0.205-2.274-0.044
			c-1.022-0.282-1.744-0.711-2.164-1.286c-0.373-0.515-0.495-1.135-0.366-1.859l0.861,0.237c-0.109,0.509,0.028,0.959,0.412,1.35
			c0.334,0.338,0.829,0.597,1.484,0.777c1.369,0.377,2.172,0.136,2.409-0.726c0.081-0.295,0.022-0.561-0.178-0.798
			s-0.471-0.462-0.812-0.675c-0.342-0.213-0.714-0.427-1.118-0.641c-0.404-0.215-0.771-0.448-1.102-0.702
			c-0.33-0.253-0.585-0.537-0.764-0.852s-0.21-0.682-0.094-1.102c0.164-0.596,0.526-1.019,1.086-1.269s1.3-0.247,2.22,0.006
			c0.928,0.256,1.586,0.667,1.977,1.234c0.36,0.503,0.474,1.053,0.341,1.65l-0.85-0.234c0.093-0.624-0.188-1.133-0.839-1.526
			c-0.23-0.143-0.531-0.266-0.902-0.367c-0.372-0.103-0.696-0.146-0.974-0.132S503.849,407.838,503.676,407.92z"/>
		<path fill="#525D65" d="M513.135,411.762l-1.938,4.379l-0.979-0.11l-1.141-5.893l0.91,0.103l0.84,4.787l1.972-4.468l0.933,0.106
			l0.92,4.795l1.891-4.477l0.911,0.104l-2.433,5.487l-0.979-0.111L513.135,411.762z"/>
		<path fill="#525D65" d="M518.509,410.946l0.859,0.015l-0.093,5.726l-0.859-0.015L518.509,410.946z M519.437,408.877l-0.019,1.122
			l-0.928-0.015l0.019-1.122L519.437,408.877z"/>
		<path fill="#525D65" d="M522.043,416.623l-0.268-4.963l-1.167,0.062l-0.04-0.755l1.166-0.062l-0.11-2.047l0.858-0.047l0.109,2.047
			l1.315-0.07l0.041,0.755l-1.315,0.07l0.268,4.964L522.043,416.623z"/>
		<path fill="#525D65" d="M528.355,415.301c0.362-0.055,0.667-0.205,0.916-0.451s0.412-0.541,0.492-0.885l0.917-0.139
			c-0.089,0.585-0.339,1.082-0.748,1.491c-0.431,0.42-0.979,0.681-1.643,0.78c-0.831,0.125-1.549-0.056-2.155-0.544
			c-0.589-0.475-0.946-1.127-1.071-1.958c-0.125-0.83,0.023-1.559,0.446-2.187c0.436-0.645,1.068-1.029,1.899-1.154
			c0.664-0.101,1.264-0.014,1.8,0.261c0.512,0.271,0.896,0.672,1.154,1.204l-0.917,0.139c-0.178-0.306-0.422-0.539-0.731-0.7
			c-0.31-0.162-0.646-0.216-1.009-0.161s-0.661,0.158-0.897,0.31c-0.235,0.151-0.426,0.338-0.569,0.561
			c-0.309,0.463-0.417,0.997-0.326,1.601c0.091,0.604,0.353,1.082,0.783,1.435C527.138,415.268,527.69,415.4,528.355,415.301z"/>
		<path fill="#525D65" d="M531.668,407.189l0.867,3.063c0.124-0.32,0.303-0.613,0.537-0.878s0.535-0.449,0.903-0.554
			c0.367-0.104,0.697-0.142,0.991-0.114c0.293,0.028,0.568,0.117,0.825,0.267c0.582,0.319,0.978,0.847,1.186,1.581l0.908,3.206
			l-0.827,0.234l-0.901-3.185c-0.144-0.507-0.401-0.87-0.773-1.091c-0.371-0.22-0.785-0.266-1.24-0.137
			c-0.463,0.132-0.812,0.397-1.049,0.797c-0.233,0.407-0.28,0.857-0.142,1.35l0.899,3.174l-0.827,0.233l-2.184-7.713
			L531.668,407.189z"/>
	</g>
	<g>
		<path fill="#525D65" d="M594.866,234.46c0.492,0.227,0.981,0.301,1.468,0.222c0.485-0.079,0.916-0.288,1.292-0.629l0.821,0.379
			c-0.529,0.547-1.144,0.886-1.843,1.018c-0.747,0.144-1.502,0.04-2.265-0.312c-1.006-0.463-1.662-1.182-1.971-2.155
			c-0.286-0.931-0.197-1.898,0.266-2.904c0.463-1.005,1.141-1.702,2.033-2.089c0.94-0.399,1.914-0.367,2.919,0.096
			c0.763,0.351,1.333,0.858,1.709,1.518c0.355,0.617,0.497,1.305,0.426,2.062l-0.822-0.378c0.015-0.506-0.106-0.97-0.362-1.39
			c-0.256-0.421-0.63-0.744-1.123-0.971c-0.492-0.228-0.934-0.345-1.325-0.353s-0.756,0.062-1.093,0.21
			c-0.684,0.299-1.211,0.85-1.581,1.654c-0.371,0.805-0.447,1.563-0.229,2.277C593.411,233.467,593.972,234.048,594.866,234.46z"/>
		<path fill="#525D65" d="M603.734,232.364c0.819,0.243,1.404,0.715,1.754,1.416c0.327,0.671,0.369,1.412,0.129,2.225
			c-0.241,0.812-0.682,1.41-1.321,1.794c-0.675,0.397-1.423,0.474-2.242,0.23c-0.82-0.243-1.404-0.715-1.754-1.416
			c-0.327-0.67-0.37-1.411-0.129-2.224s0.682-1.411,1.32-1.795C602.167,232.198,602.914,232.121,603.734,232.364z M602.275,237.283
			c0.593,0.176,1.122,0.11,1.588-0.198c0.444-0.29,0.754-0.731,0.93-1.324c0.177-0.593,0.157-1.132-0.058-1.618
			c-0.223-0.512-0.63-0.855-1.223-1.031c-0.593-0.177-1.122-0.11-1.588,0.197c-0.444,0.291-0.755,0.732-0.931,1.325
			s-0.156,1.132,0.058,1.617C601.274,236.764,601.683,237.107,602.275,237.283z"/>
		<path fill="#525D65" d="M608.691,234.664c0.459-0.589,1.075-0.834,1.848-0.736c0.379,0.048,0.716,0.192,1.013,0.434
			s0.513,0.556,0.649,0.941c0.317-0.444,0.762-0.734,1.333-0.87c0.23-0.056,0.483-0.065,0.76-0.031
			c0.276,0.035,0.535,0.124,0.774,0.266c0.24,0.142,0.445,0.327,0.617,0.557c0.366,0.509,0.507,1.104,0.421,1.785l-0.434,3.432
			l-0.853-0.108l0.431-3.408c0.06-0.47-0.024-0.873-0.251-1.209c-0.229-0.321-0.548-0.508-0.957-0.56
			c-0.432-0.055-0.809,0.04-1.132,0.284c-0.34,0.249-0.541,0.624-0.604,1.124l-0.429,3.397l-0.853-0.108l0.431-3.408
			c0.06-0.47-0.024-0.873-0.251-1.209c-0.229-0.321-0.548-0.508-0.957-0.56c-0.432-0.055-0.809,0.04-1.132,0.284
			c-0.34,0.249-0.541,0.624-0.604,1.124l-0.429,3.397l-0.853-0.107l0.718-5.682l0.853,0.107L608.691,234.664z"/>
		<path fill="#525D65" d="M619.189,235.588c0.433-0.688,1.103-1.051,2.01-1.086c0.824-0.031,1.503,0.229,2.036,0.781
			c0.533,0.545,0.815,1.233,0.848,2.065c0.031,0.831-0.197,1.539-0.687,2.123c-0.489,0.592-1.165,0.904-2.027,0.938
			s-1.539-0.28-2.03-0.941l0.123,3.192l-0.858,0.033l-0.307-7.988l0.857-0.032L619.189,235.588z M621.115,235.285
			c-0.618,0.023-1.099,0.256-1.44,0.696c-0.328,0.418-0.479,0.936-0.456,1.554s0.215,1.123,0.574,1.514
			c0.375,0.414,0.871,0.608,1.489,0.585c0.61-0.023,1.098-0.256,1.463-0.698c0.343-0.418,0.503-0.937,0.479-1.555
			c-0.024-0.617-0.223-1.122-0.597-1.513C622.229,235.456,621.726,235.262,621.115,235.285z"/>
		<path fill="#525D65" d="M630.506,239.245l-0.15-0.88c-0.157,0.306-0.366,0.577-0.627,0.816c-0.262,0.238-0.58,0.39-0.957,0.454
			c-0.376,0.064-0.709,0.067-0.997,0.008c-0.289-0.059-0.554-0.176-0.793-0.352c-0.545-0.38-0.882-0.945-1.011-1.698l-0.563-3.284
			l0.847-0.146l0.56,3.263c0.089,0.519,0.307,0.908,0.652,1.166c0.347,0.259,0.753,0.348,1.22,0.268
			c0.474-0.081,0.85-0.309,1.126-0.682c0.276-0.38,0.371-0.822,0.284-1.326l-0.557-3.251l0.847-0.146l0.967,5.645L630.506,239.245z"
			/>
		<path fill="#525D65" d="M634.223,238.354l-1.332-4.788l-1.126,0.312l-0.202-0.729l1.125-0.312l-0.549-1.976l0.827-0.229
			l0.55,1.975l1.269-0.353l0.202,0.728l-1.269,0.354l1.332,4.788L634.223,238.354z"/>
		<path fill="#525D65" d="M640.019,235.727c0.72-0.278,1.12-0.777,1.201-1.496l0.876-0.34c0.003,0.557-0.14,1.062-0.426,1.517
			c-0.287,0.454-0.747,0.805-1.38,1.05c-0.805,0.312-1.563,0.298-2.275-0.04c-0.692-0.329-1.19-0.886-1.494-1.669
			c-0.306-0.79-0.323-1.533-0.052-2.228c0.291-0.727,0.836-1.245,1.634-1.554c0.797-0.309,1.549-0.292,2.254,0.049
			c0.668,0.33,1.155,0.891,1.461,1.682l0.124,0.32l-4.475,1.732c0.247,0.47,0.601,0.799,1.059,0.99
			C638.994,235.936,639.492,235.931,640.019,235.727z M638.384,231.693c-0.491,0.19-0.846,0.503-1.062,0.938
			c-0.2,0.414-0.245,0.869-0.134,1.366l3.631-1.406c-0.253-0.442-0.593-0.748-1.02-0.919
			C639.347,231.496,638.875,231.503,638.384,231.693z"/>
		<path fill="#525D65" d="M644.639,227.937l0.391,0.765l-0.092,0.047c-0.551,0.282-0.887,0.732-1.007,1.351
			c-0.111,0.588-0.017,1.175,0.282,1.759l1.146,2.244l-0.765,0.391l-2.606-5.099l0.765-0.391l0.641,1.254
			c-0.107-0.613,0.046-1.186,0.462-1.715c0.168-0.223,0.412-0.417,0.732-0.58L644.639,227.937z"/>
	</g>
	<g>
		<path fill="#525D65" d="M598.3,354.224l-0.803-0.306l2.696-7.086l0.804,0.306L598.3,354.224z"/>
		<path fill="#525D65" d="M602.959,349.793l-0.24,0.86c0.272-0.209,0.578-0.365,0.916-0.47c0.338-0.104,0.69-0.104,1.059-0.002
			s0.67,0.242,0.905,0.419c0.236,0.177,0.425,0.396,0.566,0.657c0.33,0.576,0.394,1.231,0.188,1.967l-0.896,3.21l-0.827-0.23
			l0.889-3.188c0.142-0.508,0.111-0.952-0.092-1.334c-0.202-0.382-0.532-0.636-0.987-0.763c-0.464-0.13-0.9-0.085-1.31,0.134
			c-0.412,0.226-0.687,0.585-0.824,1.078l-0.887,3.177l-0.827-0.23l1.539-5.516L602.959,349.793z"/>
		<path fill="#525D65" d="M608.179,356.945l0.854-4.896l-1.15-0.201l0.13-0.744l1.15,0.201l0.353-2.02l0.847,0.147l-0.353,2.02
			l1.297,0.227l-0.13,0.745l-1.297-0.227l-0.855,4.896L608.179,356.945z"/>
		<path fill="#525D65" d="M614.555,357.067c0.769,0.058,1.345-0.221,1.728-0.835l0.937,0.071c-0.236,0.503-0.582,0.897-1.036,1.185
			c-0.455,0.288-1.021,0.406-1.698,0.354c-0.86-0.064-1.539-0.402-2.036-1.015c-0.484-0.595-0.694-1.312-0.631-2.149
			c0.063-0.845,0.367-1.522,0.911-2.033c0.575-0.53,1.29-0.764,2.143-0.699c0.853,0.063,1.524,0.401,2.014,1.013
			c0.462,0.586,0.66,1.302,0.597,2.146l-0.025,0.343l-4.785-0.36c0.021,0.53,0.197,0.979,0.53,1.35
			C613.54,356.814,613.991,357.025,614.555,357.067z M614.812,352.723c-0.525-0.04-0.979,0.091-1.361,0.392
			c-0.358,0.286-0.595,0.679-0.709,1.175l3.883,0.293c-0.038-0.509-0.213-0.932-0.524-1.269
			C615.768,352.959,615.338,352.762,614.812,352.723z"/>
		<path fill="#525D65" d="M622.035,352.032l0.021,0.858l-0.103,0.003c-0.618,0.016-1.116,0.276-1.492,0.782
			c-0.354,0.482-0.523,1.052-0.507,1.708l0.063,2.519l-0.858,0.022l-0.146-5.725l0.859-0.021l0.035,1.408
			c0.168-0.601,0.554-1.049,1.157-1.348c0.249-0.128,0.553-0.197,0.911-0.206L622.035,352.032z"/>
		<path fill="#525D65" d="M624.109,351.957l0.114,0.886c0.169-0.299,0.389-0.562,0.66-0.789c0.271-0.228,0.596-0.366,0.975-0.414
			c0.378-0.049,0.711-0.038,0.997,0.033c0.286,0.07,0.545,0.199,0.777,0.385c0.528,0.401,0.842,0.98,0.939,1.738l0.425,3.305
			l-0.852,0.11l-0.423-3.283c-0.067-0.522-0.269-0.92-0.604-1.192s-0.737-0.378-1.207-0.318c-0.478,0.062-0.862,0.273-1.154,0.634
			c-0.291,0.369-0.404,0.807-0.339,1.314l0.421,3.271l-0.852,0.11l-0.731-5.68L624.109,351.957z"/>
		<path fill="#525D65" d="M633.759,355.306c0.746-0.195,1.2-0.646,1.363-1.351l0.908-0.237c-0.061,0.552-0.26,1.038-0.596,1.457
			c-0.336,0.42-0.833,0.715-1.49,0.887c-0.835,0.219-1.587,0.119-2.256-0.298c-0.65-0.405-1.082-1.015-1.295-1.827
			c-0.214-0.82-0.147-1.56,0.201-2.219c0.372-0.689,0.972-1.143,1.8-1.358c0.827-0.217,1.571-0.115,2.233,0.304
			c0.627,0.404,1.047,1.017,1.262,1.836l0.087,0.333l-4.643,1.214c0.192,0.494,0.505,0.862,0.939,1.104
			C632.717,355.396,633.212,355.448,633.759,355.306z M632.591,351.112c-0.509,0.134-0.896,0.404-1.16,0.812
			c-0.246,0.389-0.342,0.835-0.288,1.342l3.767-0.984c-0.201-0.469-0.504-0.812-0.908-1.029
			C633.57,351.026,633.101,350.979,632.591,351.112z"/>
		<path fill="#525D65" d="M638.891,354.428l-1.727-4.66l-1.096,0.405l-0.263-0.709l1.096-0.405l-0.713-1.923l0.806-0.298
			l0.712,1.922l1.235-0.457l0.263,0.708l-1.235,0.458l1.727,4.661L638.891,354.428z"/>
	</g>
</g>
</svg>
